<svg width="84" height="96" viewBox="0 0 84 96" fill="none" xmlns="http://www.w3.org/2000/svg">
<path d="M43.6836 19.5673H48.5184C50.745 19.5673 52.5501 21.3724 52.5501 23.5989V26.62C52.5501 28.8465 50.745 30.6516 48.5184 30.6516H43.6836V19.5673Z" fill="#FFCEBF"/>
<path d="M18.5079 19.5673H13.6731C11.4465 19.5673 9.64144 21.3724 9.64144 23.5989V26.62C9.64144 28.8465 11.4465 30.6516 13.6731 30.6516H18.5079V19.5673Z" fill="#FFCEBF"/>
<path d="M62.1167 65.7663V95.9415H0.0746269V65.7663C0.0746269 62.3651 2.23725 59.3402 5.45719 58.2384L19.1143 53.5663L20.2326 54.1417L21.9165 53.5657L22.6313 52.3734H39.5621L40.1552 53.2412L42.0527 53.8903L43.0809 53.5676L56.7341 58.2382C59.9541 59.34 62.1167 62.3651 62.1167 65.7663Z" fill="#EAF6FF"/>
<path d="M19.1104 55.547L11.2449 58.2384C8.025 59.34 5.86238 62.3651 5.86238 65.7664V95.9415H0.0746269V65.7664C0.0746269 62.3651 2.23725 59.3402 5.45719 58.2384L19.1104 53.5678L19.1141 53.5659L19.9871 54.2702L19.1104 55.547Z" fill="#D8ECFE"/>
<path d="M39.5621 44.811V52.3736L39.0864 53.5657L32.6753 58.3933L31.0967 58.7477L29.6456 58.6937L22.7141 53.4744L22.6311 52.3736V44.811L22.635 38.2612H39.5563L39.5621 44.811Z" fill="#FFCEBF"/>
<path d="M33.9904 56.5697L33.7661 57.5737L32.6794 58.3918L31.0967 58.7477L29.6456 58.6937L22.7141 53.4744L22.6311 52.3736V44.811L22.635 38.2612H28.4228L28.4188 44.811V52.3736L33.9904 56.5697Z" fill="#FFB09E"/>
<path d="M39.5621 44.811V49.2077C37.3281 50.2669 34.8336 50.8571 32.2041 50.8571H29.9874C27.3579 50.8571 24.8634 50.2669 22.6313 49.2095V44.811L22.635 38.2612H39.5563L39.5621 44.811Z" fill="#FFB09E"/>
<path d="M16.5786 15.9737V33.5897C16.5786 40.9952 22.5819 46.9986 29.9874 46.9986H32.2039C39.6094 46.9986 45.6128 40.9952 45.6128 33.5897V15.9737C45.6128 13.7059 43.7743 11.8674 41.5065 11.8674H20.685C18.4172 11.8672 16.5786 13.7057 16.5786 15.9737Z" fill="#FFEEE6"/>
<path d="M33.0259 46.9736C32.7538 46.9911 32.4799 46.9987 32.2041 46.9987H29.9874C22.5831 46.9987 16.5793 40.995 16.5793 33.5906V15.9727C16.5793 13.7059 18.4179 11.8674 20.6848 11.8674H24.5432C22.2763 11.8674 20.4377 13.7061 20.4377 15.9727V33.5904C20.4377 40.719 26.0034 46.5512 33.0259 46.9736Z" fill="#FFDFCF"/>
<path d="M24.8484 28.4074C24.0493 28.4074 23.4015 27.7596 23.4015 26.9604V25.0613C23.4015 24.2621 24.0493 23.6143 24.8484 23.6143C25.6476 23.6143 26.2954 24.2621 26.2954 25.0613V26.9604C26.2954 27.7594 25.6476 28.4074 24.8484 28.4074Z" fill="#845C52"/>
<path d="M37.3146 28.4074C36.5154 28.4074 35.8676 27.7596 35.8676 26.9604V25.0613C35.8676 24.2621 36.5154 23.6143 37.3146 23.6143C38.1137 23.6143 38.7615 24.2621 38.7615 25.0613V26.9604C38.7615 27.7594 38.1139 28.4074 37.3146 28.4074Z" fill="#845C52"/>
<path d="M31.0958 39.9037C28.2971 39.9037 26.0201 37.6269 26.0201 34.8281C26.0201 34.029 26.6679 33.3812 27.4671 33.3812C28.2662 33.3812 28.914 34.029 28.914 34.8281C28.914 36.0311 29.8928 37.0098 31.0958 37.0098C32.2988 37.0098 33.2775 36.0311 33.2775 34.8281C33.2775 34.029 33.9253 33.3812 34.7244 33.3812C35.5236 33.3812 36.1714 34.029 36.1714 34.8281C36.1712 37.6269 33.8944 39.9037 31.0958 39.9037Z" fill="#FFB09E"/>
<path d="M8.67506 95.9413V72.5398C8.67506 71.7411 9.32138 71.0929 10.122 71.0929C10.9208 71.0929 11.5689 71.7411 11.5689 72.5398V95.9413H8.67506Z" fill="#D8ECFE"/>
<path d="M52.488 72.5398V95.9413H49.5941V72.5398C49.5941 71.7411 50.2423 71.0929 51.0411 71.0929C51.8417 71.0929 52.488 71.7411 52.488 72.5398Z" fill="#D8ECFE"/>
<path d="M37.0884 62.4082L36.5303 60.6212L33.4635 58.7479H31.0958L29.6456 58.6937L25.7415 61.0774L25.1031 62.4082L28.0993 67.7368L25.1031 96H37.0884L34.092 67.7368L37.0884 62.4082Z" fill="#F25A74"/>
<path d="M34.1888 59.1909L33.4635 58.7479L31.0967 58.7477L29.6456 58.6937L25.7415 61.0774L25.1025 62.4075L28.0986 67.736L25.1025 95.9992H28.9609L31.9571 67.736L28.9609 62.4075L34.1888 59.1909Z" fill="#E83D5A"/>
<path d="M49.3043 19.5673H45.6128V17.5378C45.6128 16.8502 45.3096 16.1979 44.784 15.7547C42.2064 13.5806 38.4339 13.5922 35.8701 15.7822C33.3122 17.967 29.5502 17.9844 26.9723 15.8235C24.3799 13.6393 20.6151 13.4762 17.9691 15.6943C17.0882 16.4327 16.5791 17.5232 16.5789 18.6727L16.5788 19.5673H13.3485V11.9612C13.3485 5.35519 18.7037 0 25.3097 0H37.3431C43.9491 0 49.3043 5.35519 49.3043 11.9612V19.5673Z" fill="#365E7D"/>
<path d="M31.0967 0.000736816C24.4911 0.000736816 19.1355 5.35442 19.1355 11.9619V14.9059C18.7284 15.1219 18.3368 15.3862 17.9683 15.6949C17.5284 16.0633 17.1812 16.5206 16.9438 17.0299C16.7064 17.5372 16.5791 18.0967 16.5791 18.6716V19.5667H13.3478V11.9617C13.3478 5.35405 18.7033 0.000549316 25.3089 0.000549316H31.0967V0.000736816Z" fill="#2B4D66"/>
<path d="M22.6303 52.3729L31.0958 58.7471L21.165 64.8144C20.2652 65.3642 19.1104 64.7166 19.1104 63.6621V53.5678L22.6303 52.3729Z" fill="#9BD8F9"/>
<path d="M24.4292 53.728L19.1104 55.5471V53.5679L19.1141 53.5658L22.6311 52.3737L24.4292 53.728Z" fill="#73C3F9"/>
<path d="M39.5612 52.3729L31.0958 58.7471L41.0265 64.8144C41.9263 65.3642 43.0811 64.7166 43.0811 63.6621V53.5678L39.5612 52.3729Z" fill="#9BD8F9"/>
<path d="M65.9938 95.8946C75.8971 95.8946 83.9254 87.8664 83.9254 77.9631C83.9254 68.0597 75.8971 60.0315 65.9938 60.0315C56.0905 60.0315 48.0623 68.0597 48.0623 77.9631C48.0623 87.8664 56.0905 95.8946 65.9938 95.8946Z" fill="#AEE69C"/>
<path d="M51.8123 77.9631C51.8123 68.6929 58.8467 61.0659 67.8688 60.1284C67.2525 60.0645 66.627 60.0315 65.9938 60.0315C56.0904 60.0315 48.0623 68.0597 48.0623 77.9631C48.0623 87.8664 56.0904 95.8946 65.9938 95.8946C66.627 95.8946 67.2525 95.8616 67.8688 95.7977C58.8467 94.8604 51.8123 87.2333 51.8123 77.9631Z" fill="#89DAA4"/>
<path d="M64.4955 86.9751C63.6977 86.9751 62.9289 86.6589 62.3608 86.0908L56.3683 80.0983C55.1893 78.9191 55.1893 77.0076 56.3683 75.8284C57.5475 74.6494 59.4591 74.6494 60.6382 75.8284L64.1692 79.3594L71.0694 70.1591C72.0699 68.8251 73.9622 68.5549 75.2964 69.5554C76.6305 70.5559 76.9007 72.4483 75.9002 73.7824L66.9112 85.7676C66.3861 86.4677 65.583 86.9057 64.7098 86.9678C64.6382 86.9726 64.5666 86.9751 64.4955 86.9751Z" fill="#EAF6FF"/>
</svg>
