<svg width="173" height="42" viewBox="0 0 173 42" fill="none" xmlns="http://www.w3.org/2000/svg">
<path d="M41.4044 33.6526C41.4044 36.1013 40.6392 38.0908 39.1088 39.6213C37.6221 41.108 35.6544 41.8513 33.2057 41.8513H8.47825C7.29763 41.8513 6.20446 41.6545 5.19875 41.261C4.19304 40.8237 3.3185 40.2553 2.57515 39.5557C1.87552 38.8123 1.32894 37.9378 0.9354 36.9321C0.54186 35.9264 0.34509 34.8332 0.34509 33.6526V0.660799H8.47825V33.6526H33.2057V0.660799H41.4044V33.6526ZM81.2529 41.8513H48.3267V0.660799H81.1873V8.92514H56.5255V17.1895H81.0561V25.3882H56.5255V33.6526H81.2529V41.8513ZM124.727 33.6526C124.727 36.3199 124.006 38.3532 122.563 39.7524C121.12 41.1517 119.065 41.8513 116.397 41.8513H86.9475V33.6526H116.397V25.3882H94.5559C92.1072 25.3882 90.1176 24.7105 88.5872 23.3549C87.1005 21.9557 86.3572 19.9005 86.3572 17.1895V8.92514C86.3572 6.30154 87.1005 4.26825 88.5872 2.82527C90.0739 1.38229 92.0635 0.660799 94.5559 0.660799H122.694V8.92514H94.5559V17.1895H116.397C118.934 17.1895 120.945 17.9328 122.432 19.4195C123.962 20.9062 124.727 22.8958 124.727 25.3882V33.6526ZM172.138 41.8513H163.873V25.3882H139.211V41.8513H131.013V8.92514C131.013 6.34526 131.756 4.33384 133.243 2.89086C134.773 1.40415 136.763 0.660799 139.211 0.660799H163.873C165.054 0.660799 166.147 0.879432 167.153 1.3167C168.202 1.71024 169.077 2.27869 169.776 3.02204C170.52 3.76539 171.088 4.63992 171.482 5.64564C171.919 6.65135 172.138 7.74452 172.138 8.92514V41.8513ZM163.873 17.1895V8.92514H139.211V17.1895H163.873Z" fill="black"/>
</svg>
