<svg width="17" height="29" viewBox="0 0 17 29" fill="none" xmlns="http://www.w3.org/2000/svg">
<path d="M1.49731 2.05868C3.37956 0.686224 5.64196 0 8.28449 0C13.9831 0 17 2.99807 17 7.18871C17 9.61049 15.7836 12.0756 13.3127 14.5373C10.1679 17.7286 7.90782 19.3043 6.48058 19.3043C6.16596 19.3078 5.85377 19.2507 5.56238 19.1363C5.27099 19.0219 5.00626 18.8525 4.78377 18.638C4.56129 18.4236 4.38553 18.1684 4.26684 17.8875C4.14814 17.6066 4.08891 17.3057 4.09261 17.0024C4.09261 15.8731 5.18464 14.7405 7.06805 13.0849C7.17065 12.9771 7.28673 12.882 7.41363 12.8018C9.55276 10.903 10.2232 9.85368 10.2232 8.56117C10.2232 6.94554 9.08969 6.05611 7.45855 6.05611C6.54418 6.08567 5.63985 6.24968 4.77685 6.54246C4.0496 6.80118 3.28932 6.96367 2.51677 7.02549C1.82865 7.00115 1.17832 6.71593 0.707203 6.23186C0.236083 5.74778 -0.0177168 5.10398 0.000962645 4.44048C-0.0128605 3.59435 0.49167 2.78488 1.49731 2.05868ZM7.23738 28.998C6.6712 29.0151 6.1074 28.9203 5.58073 28.7192C5.05406 28.5182 4.57569 28.2153 4.17515 27.8292C3.7746 27.4431 3.46037 26.982 3.25182 26.4743C3.04327 25.9666 2.94482 25.4231 2.96256 24.8774C2.96256 22.9386 4.69046 21.0831 7.23738 21.0831C8.27521 21.1019 9.26511 21.5077 9.9991 22.2152C10.7331 22.9227 11.154 23.8769 11.1735 24.8774C11.1735 27.0993 9.54239 28.998 7.23738 28.998Z" fill="#3A57CE"/>
</svg>
