<svg width="30" height="45" viewBox="0 0 30 45" fill="none" xmlns="http://www.w3.org/2000/svg">
<path d="M0.674 45V38.614L15.492 23.362C18.7987 19.89 20.452 16.9967 20.452 14.682C20.452 12.9873 19.9147 11.6233 18.84 10.59C17.8067 9.55666 16.4633 9.04 14.81 9.04C11.5447 9.04 9.12667 10.7347 7.556 14.124L0.364 9.908C1.728 6.932 3.69133 4.65866 6.254 3.088C8.81667 1.51733 11.6273 0.731997 14.686 0.731997C18.6127 0.731997 21.9813 1.972 24.792 4.452C27.6027 6.89066 29.008 10.1973 29.008 14.372C29.008 18.8773 26.6313 23.5067 21.878 28.26L13.384 36.754H29.69V45H0.674Z" fill="#011164" fill-opacity="0.07"/>
</svg>
