<svg width="31" height="45" viewBox="0 0 31 45" fill="none" xmlns="http://www.w3.org/2000/svg">
<path d="M20.886 18.208C23.8207 19.076 26.1973 20.6053 28.016 22.796C29.876 24.9453 30.806 27.5493 30.806 30.608C30.806 35.072 29.2973 38.5647 26.28 41.086C23.304 43.6073 19.646 44.868 15.306 44.868C11.9167 44.868 8.87867 44.1033 6.192 42.574C3.54667 41.0033 1.62467 38.7093 0.426 35.692L7.742 31.476C8.81667 34.824 11.338 36.498 15.306 36.498C17.4967 36.498 19.1913 35.9813 20.39 34.948C21.63 33.8733 22.25 32.4267 22.25 30.608C22.25 28.8307 21.63 27.4047 20.39 26.33C19.1913 25.2553 17.4967 24.718 15.306 24.718H13.446L10.16 19.758L18.716 8.598H1.728V0.599997H29.008V7.668L20.886 18.208Z" fill="#011164" fill-opacity="0.07"/>
</svg>
