<svg width="39" height="39" viewBox="0 0 39 39" fill="none" xmlns="http://www.w3.org/2000/svg">
<g clip-path="url(#clip0)">
<path d="M23.8967 2.47081C23.185 2.39307 22.4666 2.34867 21.7353 2.37678C16.0343 2.58564 11.0419 5.97616 8.27031 9.08061L8.27819 24.4152L9.24584 24.5244C12.1629 24.8553 14.1824 25.7816 15.2497 27.279C16.4292 28.9341 16.1162 30.876 15.9926 31.4327C15.5808 33.2819 16.6721 35.1636 18.54 35.5222C19.5958 35.7239 20.657 35.8232 21.7104 35.8226C22.4523 35.8221 23.1869 35.7545 23.9162 35.6567C32.1624 34.5513 38.5261 27.5319 38.4531 18.9909C38.3733 9.90888 31.0324 3.24954 23.8967 2.47081Z" fill="#FABE2C"/>
<path d="M38.4531 18.9909C38.3733 9.90877 31.0324 3.24944 23.8967 2.4707L23.9162 35.6567C32.1624 34.5512 38.526 27.5319 38.4531 18.9909Z" fill="#FF9100"/>
<path d="M25.6132 15.1977C24.3111 13.895 24.3099 11.7761 25.6093 10.4728C26.9132 9.16963 29.031 9.16839 30.3342 10.4701C31.6374 11.7718 31.6386 13.8907 30.337 15.1938L30.337 15.1949C29.0355 16.4958 26.9165 16.4972 25.6132 15.1977Z" fill="#00C8C8"/>
<path d="M16.145 11.3981C15.67 9.63844 16.7025 7.79056 18.5039 7.30782C20.2778 6.83172 22.1169 7.88735 22.5952 9.66674C23.0744 11.4468 22.0204 13.2793 20.2363 13.758C18.4481 14.2384 16.622 13.1784 16.145 11.3981Z" fill="#474F54"/>
<path d="M12.2135 20.0608C10.4335 19.5845 9.37349 17.7501 9.84967 15.9723C10.3229 14.1981 12.1457 13.1285 13.9372 13.6086C15.7214 14.0844 16.7802 15.9127 16.302 17.6971C15.824 19.487 13.9892 20.5354 12.2135 20.0608Z" fill="#FF435B"/>
<path d="M29.4217 24.6604C27.6421 24.1852 26.5789 22.3597 27.058 20.5719C27.5357 18.7833 29.3707 17.7329 31.1465 18.2082C32.9265 18.6845 33.9865 20.5189 33.5103 22.2967C33.0344 24.0811 31.2017 25.1381 29.4217 24.6604Z" fill="#99341F"/>
<path d="M7.19636 0.143303C4.43606 0.144924 3.86265 10.5118 3.86772 19.145C3.86795 19.533 3.87305 19.889 3.87624 20.2583L6.23464 21.3701L7.20882 21.3696L8.78587 21.3686L10.5406 20.2544C10.5431 19.885 10.5475 19.5353 10.5473 19.1411C10.5422 10.5078 9.95666 0.141683 7.19636 0.143303Z" fill="#B35324"/>
<path d="M10.5405 20.2544C10.5431 19.885 10.5475 19.5353 10.5472 19.1411C10.5422 10.5079 9.95659 0.14169 7.19629 0.143311L7.20875 21.3696L8.7858 21.3687L10.5405 20.2544Z" fill="#99341F"/>
<path d="M7.20803 20.2563L3.8761 20.2583C3.91877 25.1814 4.20284 28.4155 4.2189 28.7131L7.213 28.7113L10.2071 28.7095C10.236 28.166 10.5067 25.3908 10.5405 20.2544L7.20803 20.2563Z" fill="#FFF7E6"/>
<path d="M10.5406 20.2544L7.20813 20.2563L7.21309 28.7113L10.2072 28.7095C10.236 28.1659 10.5068 25.3907 10.5406 20.2544Z" fill="#FFCCB3"/>
<path d="M7.21207 26.936C4.75613 26.9374 2.76017 28.9357 2.76162 31.3917L2.76292 33.6182C2.76364 34.8456 1.69094 35.9196 0.463523 35.9203L0.46483 38.1468L4.99211 38.1442C5.77667 38.1437 6.51868 37.9825 7.2184 37.7326C9.80398 36.809 11.6694 34.2852 11.6677 31.3864C11.6663 28.9305 9.668 26.9345 7.21207 26.936Z" fill="#474F54"/>
<path d="M11.6677 31.3862C11.6663 28.9303 9.66798 26.9343 7.21204 26.9358L7.21837 37.7324C9.80395 36.8088 11.6694 34.285 11.6677 31.3862Z" fill="#32393F"/>
<path d="M23.9136 31.3791C25.7581 31.378 27.2525 29.8818 27.2514 28.0373C27.2504 26.1928 25.7542 24.6984 23.9097 24.6995C22.0652 24.7005 20.5708 26.1967 20.5718 28.0412C20.5729 29.8857 22.0691 31.3801 23.9136 31.3791Z" fill="#FFF7E6"/>
<path d="M27.2515 28.0373C27.2505 26.1928 25.7543 24.6984 23.9098 24.6995L23.9137 31.3791C25.7582 31.378 27.2526 29.8818 27.2515 28.0373Z" fill="#FFE6CC"/>
</g>
<defs>
<clipPath id="clip0">
<rect width="38" height="38" fill="white" transform="translate(0.442505 0.146973) rotate(-0.0336302)"/>
</clipPath>
</defs>
</svg>
