<svg width="92" height="64" viewBox="0 0 92 64" fill="none" xmlns="http://www.w3.org/2000/svg">
<path d="M92 23.363V52.1365C92 55.3056 89.4307 57.875 86.2615 57.875H74.7495L69 63.6245L63.2506 57.875H40.2394C38.4752 57.875 36.8963 57.079 35.8468 55.8276C35.0064 54.8298 34.5011 53.5415 34.5011 52.1365V23.363C34.5011 20.1938 37.0687 17.6245 40.2396 17.6245H86.2619C89.4307 17.6245 92 20.1938 92 23.363Z" fill="#AEE69C"/>
<path d="M78.4518 17.6245V46.387C78.4518 51.5924 74.2163 55.8276 69.0112 55.8276H35.8468C35.0064 54.8298 34.5011 53.5415 34.5011 52.1365V23.363C34.5011 20.1938 37.0687 17.6245 40.2396 17.6245H78.4518Z" fill="#89DAA4"/>
<path d="M0.000915527 6.11387V46.3865C0.000915527 49.5558 2.57009 52.125 5.73942 52.125H11.5009L17.2509 57.875L23.0009 52.125H69.0121C72.1814 52.125 74.7506 49.5558 74.7506 46.3865V6.11387C74.7506 2.94454 72.1814 0.375366 69.0121 0.375366H5.73942C2.57009 0.375546 0.000915527 2.94472 0.000915527 6.11387Z" fill="#EAF6FF"/>
<path d="M5.55324 6.11582V46.3885C5.55324 49.5576 8.12259 52.127 11.2917 52.127H5.7385C2.56935 52.127 0 49.5576 0 46.3885V6.11582C0 2.94667 2.56935 0.377319 5.7385 0.377319H11.2917C8.12259 0.377319 5.55324 2.94667 5.55324 6.11582Z" fill="#D8ECFE"/>
<path d="M36.5594 35.28C34.9237 35.28 33.5976 33.9539 33.5976 32.3182C33.5976 28.1087 35.6745 24.2596 39.1532 22.0221C40.6008 21.091 41.4262 19.5074 41.361 17.7858C41.2663 15.2948 39.2407 13.2694 36.7497 13.1747C35.4277 13.1251 34.1768 13.6002 33.2276 14.5139C32.2776 15.4285 31.7544 16.6581 31.7544 17.9763C31.7544 19.612 30.4283 20.9381 28.7926 20.9381C27.1569 20.9381 25.8308 19.612 25.8308 17.9763C25.8308 15.0332 26.9986 12.2883 29.1193 10.2467C31.239 8.20579 34.0265 7.14168 36.9745 7.2556C42.5417 7.46691 47.0688 11.9938 47.2803 17.5612C47.4237 21.3408 45.5375 24.9591 42.3577 27.0042C40.5817 28.1466 39.5212 30.133 39.5212 32.3182C39.5212 33.9539 38.1951 35.28 36.5594 35.28Z" fill="#F25A74"/>
<path d="M36.5594 40.3994C34.9715 40.3994 33.6844 41.6865 33.6844 43.2744C33.6844 44.8621 34.9715 46.1494 36.5594 46.1494C38.1473 46.1494 39.4344 44.8623 39.4344 43.2744C39.4344 41.6866 38.1471 40.3994 36.5594 40.3994Z" fill="#F25A74"/>
</svg>
