<svg width="39" height="39" viewBox="0 0 39 39" fill="none" xmlns="http://www.w3.org/2000/svg">
<g clip-path="url(#clip0)">
<path d="M19.9182 22.2351C19.7916 22.2827 19.665 22.2986 19.5383 22.2986C19.4116 22.2987 19.2849 22.283 19.1582 22.2355L0.534607 16.0398L0.543166 30.6223C0.544579 33.0289 2.49322 34.9753 4.89989 34.9739L34.1916 34.9567C36.5982 34.9553 38.5446 33.0066 38.5432 30.6L38.5346 16.0175L19.9182 22.2351Z" fill="#607D8B"/>
<path d="M38.5325 12.3917L38.5346 16.0175L19.9182 22.2351C19.7916 22.2827 19.6649 22.2986 19.5383 22.2987C19.4116 22.2987 19.2849 22.283 19.1582 22.2356L0.534591 16.0398L0.532463 12.414C0.53105 10.0073 2.47741 8.05867 4.88407 8.05726L34.1757 8.04007C36.5824 8.03865 38.531 9.98501 38.5325 12.3917Z" fill="#78909C"/>
<path d="M19.5383 22.2985C19.4116 22.2985 19.2849 22.278 19.163 22.2369L1.347 16.3099C0.724633 16.1044 0.388572 15.4317 0.595623 14.8093C0.801091 14.1869 1.47381 13.8493 2.09777 14.0579L19.5368 19.8585L36.9707 14.0359C37.5944 13.8281 38.2659 14.165 38.4737 14.7855C38.6815 15.4076 38.3462 16.0807 37.7241 16.2885L19.9151 22.2365C19.7916 22.2777 19.6649 22.2984 19.5383 22.2985Z" fill="black"/>
<path d="M34.1915 34.9567L4.89987 34.9739C2.49796 34.9753 0.54456 33.0242 0.54315 30.6223L0.532463 12.414C0.531053 10.0121 2.48216 8.05867 4.88407 8.05726L34.1757 8.04007C36.5777 8.03866 38.531 9.98976 38.5325 12.3917L38.5431 30.6C38.5446 33.0019 36.5935 34.9553 34.1915 34.9567ZM4.88547 10.4323C3.79455 10.4329 2.90682 11.3217 2.90746 12.4126L2.91815 30.6209C2.91879 31.7118 3.80756 32.5996 4.89848 32.5989L34.1901 32.5817C35.2811 32.5811 36.1688 31.6923 36.1681 30.6014L36.1575 12.3931C36.1568 11.3022 35.268 10.4144 34.1771 10.4151L4.88547 10.4323Z" fill="black"/>
<path d="M24.6772 10.4205C24.0217 10.4209 23.4894 9.88921 23.489 9.23371L23.4871 6.06704C23.487 5.84854 23.3096 5.67131 23.0911 5.67144L15.9661 5.67562C15.7476 5.67575 15.5703 5.85319 15.5705 6.07169L15.5723 9.23835C15.5727 9.89385 15.041 10.4262 14.3855 10.4265C13.73 10.4269 13.1977 9.89525 13.1973 9.23975L13.1955 6.07308C13.1946 4.54516 14.4368 3.30152 15.9647 3.30062L23.0897 3.29644C24.6176 3.29554 25.8612 4.53773 25.8621 6.06564L25.864 9.23231C25.8644 9.88781 25.3327 10.4201 24.6772 10.4205Z" fill="black"/>
</g>
<defs>
<clipPath id="clip0">
<rect width="38" height="38" fill="white" transform="translate(0.525269 0.143066) rotate(-0.0336302)"/>
</clipPath>
</defs>
</svg>
