<svg width="39" height="39" viewBox="0 0 39 39" fill="none" xmlns="http://www.w3.org/2000/svg">
<path d="M3.74997 23.756C3.31395 24.4242 2.9795 25.1628 2.76716 25.9486L7.61609 30.7331L9.20261 29.1361L3.74997 23.756Z" fill="#F4D853"/>
<path d="M9.20263 29.1362L7.61611 30.7331L12.549 35.6003C13.3311 35.3759 14.0631 35.0295 14.7233 34.5834L9.20263 29.1362Z" fill="#E9A734"/>
<path d="M12.5209 25.796L7.42995 20.7727C6.69146 21.0572 6.00984 21.4519 5.40376 21.9359L10.9344 27.393L12.5209 25.796Z" fill="#FBF599"/>
<path d="M10.9344 27.3929L16.5181 32.9024C16.9943 32.2886 17.38 31.6015 17.6555 30.8622L12.5209 25.7959L10.9344 27.3929Z" fill="#F4D853"/>
<path d="M15.839 22.4558L13.6165 20.2628L10.4099 20.2611L14.2526 24.0527L15.839 22.4558Z" fill="#FCF7E2"/>
<path d="M14.2526 24.0528L18.1362 27.8849C18.1353 27.3595 18.1334 26.2025 18.1308 24.7172L15.839 22.456L14.2526 24.0528Z" fill="#FBF599"/>
<path d="M29.1756 9.03128L30.7621 7.43426L25.9424 2.67853C25.1583 2.90192 24.4249 3.24684 23.764 3.69144L29.1756 9.03128Z" fill="#F4D853"/>
<path d="M34.7376 14.5194C35.1746 13.8534 35.511 13.1166 35.7247 12.3309L30.7621 7.43425L29.1756 9.03127L34.7376 14.5194Z" fill="#E9A734"/>
<path d="M27.444 10.7743L21.9663 5.36933C21.4893 5.9831 21.1038 6.67043 20.8296 7.41022L25.8575 12.3713L27.444 10.7743Z" fill="#FBF599"/>
<path d="M25.8574 12.3712L31.0567 17.5015C31.7917 17.2161 32.4731 16.8207 33.0806 16.3361L27.4439 10.7742L25.8574 12.3712Z" fill="#F4D853"/>
<path d="M22.5394 15.7112L24.8771 18.0178C26.4298 18.0186 27.6162 18.0193 28.0838 18.0195L24.1259 14.1142L22.5394 15.7112Z" fill="#FBF599"/>
<path d="M24.1258 14.1143L20.3573 10.3959C20.3582 10.9244 20.3602 12.0808 20.3627 13.5637L22.5393 15.7113L24.1258 14.1143Z" fill="#FCF7E2"/>
<path d="M18.1231 20.2654C18.1231 20.2293 18.123 20.1932 18.1229 20.1569L18.0152 20.2653L18.1231 20.2654Z" fill="#3D6DEF"/>
<path d="M18.1193 18.0144C14.0076 18.0121 10.2116 18.0101 10.196 18.0101C4.84911 17.9804 0.30944 22.3419 0.251739 27.8421L2.50268 27.8657C2.50965 27.2052 2.60126 26.5626 2.76718 25.9487C2.97952 25.1629 3.31398 24.4243 3.74999 23.7561C4.20048 23.0656 4.75936 22.4505 5.40377 21.9359C6.00985 21.452 6.69147 21.0573 7.42996 20.7728C8.28457 20.4436 9.21491 20.2617 10.1921 20.2612L10.4099 20.2613L13.6166 20.263L18.0153 20.2654L18.123 20.1569C18.1217 19.4452 18.1206 18.7251 18.1193 18.0144Z" fill="#5CA2FA"/>
<path d="M35.9906 10.415C35.9836 11.0765 35.8914 11.7185 35.7248 12.3309C35.5111 13.1166 35.1747 13.8534 34.7377 14.5194C34.2851 15.2092 33.7244 15.8227 33.0808 16.3362C32.4733 16.8208 31.7918 17.2161 31.0568 17.5015C30.2 17.8343 29.2707 18.0181 28.3014 18.0198C28.2993 18.0198 28.2233 18.0198 28.0838 18.0197C27.6162 18.0194 26.4298 18.0188 24.8771 18.018C23.5653 18.0172 21.9924 18.0164 20.3704 18.0155C20.3717 18.7625 20.373 19.5197 20.3743 20.2666L28.3028 20.2709C33.7261 20.2612 38.1847 15.8505 38.2416 10.4388L35.9906 10.415Z" fill="#3D6DEF"/>
<path d="M20.2503 18.0154C20.2904 18.0154 20.3304 18.0154 20.3703 18.0155C20.3703 17.9753 20.3702 17.935 20.3701 17.8948L20.2503 18.0154Z" fill="#FF3838"/>
<path d="M27.9261 0.135224C22.4888 0.198744 18.0834 4.66484 18.1058 10.0882C18.1058 10.1043 18.1123 13.9017 18.1193 18.0142C18.1206 18.725 18.1218 19.4451 18.123 20.1568L20.2504 18.0154L20.3703 17.8948C20.3676 16.3382 20.365 14.8317 20.3629 13.5636C20.3603 12.0807 20.3583 10.9244 20.3575 10.3958C20.3571 10.1948 20.3569 10.0843 20.3569 10.0817C20.3531 9.14413 20.5208 8.24383 20.8298 7.41015C21.104 6.67036 21.4894 5.98303 21.9664 5.36925C22.4715 4.71937 23.079 4.15212 23.7641 3.69137C24.4251 3.24677 25.1585 2.90185 25.9425 2.67846C26.5828 2.49604 27.2565 2.3942 27.9524 2.38614L27.9261 0.135224Z" fill="#FF5C5C"/>
<path d="M20.3742 20.2664C20.373 19.5195 20.3717 18.7624 20.3704 18.0154C20.3304 18.0153 20.2904 18.0153 20.2504 18.0153L18.1229 20.1567C18.123 20.1929 18.1231 20.2291 18.1232 20.2652C18.1259 21.8647 18.1285 23.4165 18.1308 24.7169C18.1333 26.2023 18.1354 27.3593 18.1363 27.8847C18.1366 28.0814 18.1368 28.1901 18.1368 28.1937C18.1362 29.13 17.9658 30.0292 17.6554 30.8621C17.38 31.6014 16.9943 32.2884 16.5181 32.9022C16.0132 33.5531 15.4067 34.1214 14.7233 34.5832C14.0631 35.0293 13.3311 35.3757 12.549 35.6001C11.9091 35.7837 11.2359 35.8863 10.541 35.8944L10.5673 38.1453C15.979 38.0821 20.3846 33.6184 20.3879 28.1924C20.3877 28.1767 20.3812 24.3794 20.3742 20.2664Z" fill="#FF3838"/>
</svg>
