<svg width="39" height="36" viewBox="0 0 39 36" fill="none" xmlns="http://www.w3.org/2000/svg">
<path d="M21.3885 29.6352L15.145 31.8654L14.9088 32.6931C14.5732 33.8711 13.2965 34.8352 12.0719 34.8359L24.4664 34.8287L21.3885 29.6352Z" fill="#ADACA7"/>
<path d="M23.8536 32.6877L22.979 29.6341L19.3781 27.4096L15.7798 29.6383L15.1451 31.8652L21.3898 31.8616L21.6271 32.689C21.964 33.8666 23.2419 34.8292 24.4665 34.8285L26.693 34.8272C25.4684 34.8279 24.1905 33.8653 23.8536 32.6877Z" fill="#8F8F8B"/>
<path d="M33.3696 29.6282L35.5962 29.6269C36.8208 29.6261 37.8222 28.6236 37.8215 27.399L37.8188 22.9459L33.3631 18.4954L33.3696 29.6282Z" fill="#ADACA7"/>
<path d="M0.934721 27.4207C0.93544 28.6453 1.93798 29.6466 3.16259 29.6459L33.3696 29.6282C34.5942 29.6275 35.5956 28.6249 35.5949 27.4003L35.587 14.0409L0.932107 22.9675L0.934721 27.4207Z" fill="#CBC9C2"/>
<path d="M35.5792 0.681554L33.3526 0.682861L35.5922 22.9472L37.8188 22.9459L37.807 2.90681C37.8063 1.6822 36.8038 0.680836 35.5792 0.681554Z" fill="#404242"/>
<path d="M35.5805 2.90812C35.5797 1.68351 34.5772 0.682148 33.3526 0.682867L3.14557 0.700597C1.92096 0.701316 0.919594 1.70386 0.920313 2.92847L0.932075 22.9675L35.5922 22.9472L35.5909 20.7206L19.3689 11.8229L35.5805 2.90812Z" fill="#565959"/>
<path d="M35.5805 2.90757L33.3544 2.90732C33.3544 2.90769 19.3689 11.8227 19.3689 11.8227C19.3689 11.8227 33.3645 20.7216 33.3644 20.7217L35.5909 20.719C35.591 20.719 35.5803 2.90786 35.5805 2.90757Z" fill="#4B88D5"/>
<path d="M33.3539 2.90895L3.15344 2.92504C3.15159 2.92594 3.16048 20.7392 3.15737 20.7396C3.15737 20.7396 33.3629 20.7203 33.3637 20.7203C33.364 20.7203 33.3508 2.90925 33.3539 2.90895Z" fill="#69A7FF"/>
<path d="M19.3781 27.4097C19.9929 27.4094 20.4911 26.9107 20.4907 26.2958C20.4903 25.681 19.9916 25.1828 19.3768 25.1832C18.7619 25.1835 18.2638 25.6823 18.2641 26.2971C18.2645 26.912 18.7632 27.4101 19.3781 27.4097Z" fill="white"/>
<path d="M35.5789 0.124837L3.14526 0.143874C1.61057 0.144775 0.362793 1.39402 0.363694 2.92871L0.37807 27.4209C0.378971 28.9556 1.62821 30.2034 3.16291 30.2025L15.0421 30.1955L14.3735 32.5408C14.105 33.4826 13.0509 34.2787 12.0716 34.2793L7.87819 34.2817C7.57078 34.2819 7.3217 34.5312 7.32188 34.8387C7.32206 35.1462 7.57143 35.3952 7.87885 35.395L30.8867 35.3815C31.1941 35.3813 31.4432 35.132 31.443 34.8245C31.4428 34.5171 31.1934 34.268 30.886 34.2682L26.6926 34.2707C25.7133 34.2713 24.6582 33.4763 24.3886 32.5349L23.7173 30.1904L35.5965 30.1834C37.1312 30.1825 38.379 28.9333 38.3781 27.3986L38.3637 2.90641C38.3628 1.37171 37.1135 0.123936 35.5789 0.124837ZM3.14592 1.25716L35.5795 1.23812C36.5003 1.23758 37.2499 1.9863 37.2504 2.90706L37.2618 22.3895L1.48841 22.4105L1.47698 2.92806C1.47643 2.0073 2.22508 1.2577 3.14592 1.25716ZM23.3183 32.8414C23.4714 33.376 23.7753 33.8671 24.1736 34.2722L14.5906 34.2778C14.9884 33.8722 15.2917 33.3807 15.4442 32.846L16.1999 30.1948L22.5594 30.1911L23.3183 32.8414ZM35.5958 29.0701L3.16225 29.0892C2.24142 29.0897 1.49189 28.341 1.49135 27.4202L1.48906 23.5238L37.2625 23.5028L37.2648 27.3992C37.2653 28.32 36.5167 29.0696 35.5958 29.0701Z" fill="black"/>
<path d="M3.15765 21.2963L35.5912 21.2773C35.8987 21.2771 36.1477 21.0278 36.1476 20.7203L36.1371 2.9078C36.1369 2.60031 35.8876 2.35131 35.5801 2.35149L3.14655 2.37052C2.83913 2.3707 2.59005 2.62 2.59023 2.92749L2.59481 10.7205C2.59499 11.0279 2.84436 11.277 3.15177 11.2768C3.45919 11.2766 3.70827 11.0273 3.70809 10.7198L3.70384 3.48348L35.0241 3.46509L35.0339 20.1643L3.71364 20.1827L3.70939 12.9464C3.70921 12.6389 3.45984 12.3899 3.15243 12.3901C2.84501 12.3902 2.59593 12.6395 2.59611 12.947L2.60069 20.74C2.60087 21.0475 2.85024 21.2965 3.15765 21.2963Z" fill="black"/>
<path d="M19.3765 24.6265C18.4556 24.627 17.707 25.3766 17.7075 26.2974C17.7081 27.2181 18.4576 27.9668 19.3784 27.9663C20.2993 27.9658 21.0479 27.2162 21.0474 26.2954C21.0468 25.3746 20.2973 24.6259 19.3765 24.6265ZM19.3778 26.853C19.0708 26.8532 18.821 26.6037 18.8208 26.2967C18.8206 25.9897 19.0701 25.7399 19.3771 25.7397C19.6841 25.7396 19.9339 25.9891 19.9341 26.2961C19.9343 26.603 19.6847 26.8528 19.3778 26.853Z" fill="black"/>
</svg>
