<svg width="38" height="38" viewBox="0 0 38 38" fill="none" xmlns="http://www.w3.org/2000/svg">
<path d="M6.75391 26.793V33.4727H31.2461V26.793H6.75391Z" fill="#FF9F00"/>
<path d="M19 26.793H31.2461V33.4727H19V26.793Z" fill="#FF7816"/>
<path d="M31.3574 17.0851L29.5538 20.603H8.44615L6.64258 17.0851C9.29213 13.4113 13.9012 11.207 19 11.207C24.0988 11.207 28.7079 13.4113 31.3574 17.0851Z" fill="#FF4B00"/>
<path d="M31.3574 17.0851L29.5538 20.603H19V11.207C24.0988 11.207 28.7079 13.4113 31.3574 17.0851Z" fill="#CC1E0D"/>
<path d="M35.4099 14.8585L31.2461 29.0195H6.75388L2.59009 14.8585L5.39561 13.7899C6.66487 16.2168 9.09177 17.6417 11.0733 17.8867H12.2313C14.7918 17.486 16.7064 13.5672 17.486 9.82642H20.5142C21.2935 13.5672 23.2084 17.486 25.7687 17.8867H26.9266C28.9082 17.6417 31.3351 16.2168 32.6043 13.7899L35.4099 14.8585Z" fill="#FDBF00"/>
<path d="M35.4099 14.8585L31.2461 29.0195H19V9.82642H20.5139C21.2935 13.5672 23.2081 17.486 25.7687 17.8867H26.9266C28.9082 17.6417 31.3351 16.2168 32.6044 13.7899L35.4099 14.8585Z" fill="#FF9F00"/>
<path d="M3.41406 15.6602C1.57251 15.6602 0 14.1619 0 12.3203C0 10.4788 1.57251 8.98047 3.41406 8.98047C5.25562 8.98047 6.75391 10.4788 6.75391 12.3203C6.75391 14.1619 5.25562 15.6602 3.41406 15.6602Z" fill="#FF9F00"/>
<path d="M34.5859 15.6602C32.7444 15.6602 31.2461 14.1619 31.2461 12.3203C31.2461 10.4788 32.7444 8.98047 34.5859 8.98047C36.4275 8.98047 38 10.4788 38 12.3203C38 14.1619 36.4275 15.6602 34.5859 15.6602Z" fill="#FF7816"/>
<path d="M19 4.52734C17.1518 4.52734 15.6602 6.01897 15.6602 7.86719C15.6602 9.71512 17.1518 11.207 19 11.207C20.8482 11.207 22.3398 9.71512 22.3398 7.86719C22.3398 6.01897 20.8482 4.52734 19 4.52734Z" fill="#FF9F00"/>
<path d="M19 17.4191L15.1925 21.2265L19 25.034L22.8075 21.2265L19 17.4191Z" fill="#FF4B00"/>
<path d="M25.6797 21.8785L27.254 23.4528L25.6797 25.027L24.1055 23.4528L25.6797 21.8785Z" fill="#CC1E0D"/>
<path d="M12.3203 21.8785L13.8946 23.4528L12.3203 25.027L10.7461 23.4528L12.3203 21.8785Z" fill="#FF4B00"/>
<path d="M19 11.207V4.52734C20.8482 4.52734 22.3398 6.01897 22.3398 7.86719C22.3398 9.71512 20.8482 11.207 19 11.207Z" fill="#FF7816"/>
<path d="M22.8075 21.2265L19 25.034V17.4191L22.8075 21.2265Z" fill="#CC1E0D"/>
</svg>
