<svg width="482" height="449" viewBox="0 0 482 449" fill="none" xmlns="http://www.w3.org/2000/svg">
<path d="M38.2138 235.99L38.0577 234.491C36.1255 234.821 34.1645 235.142 32.2289 235.444L32.3636 236.946C34.3059 236.644 36.2743 236.322 38.2138 235.99ZM49.8859 233.81L49.6854 232.319C47.7497 232.711 45.7959 233.091 43.877 233.449L44.0551 234.944C45.981 234.585 47.9425 234.203 49.8859 233.81ZM61.5097 231.266L61.2645 229.785C59.3588 230.234 57.413 230.676 55.4814 231.098L55.7045 232.584C57.6437 232.16 59.5967 231.717 61.5097 231.266ZM73.0732 228.349L72.7812 226.88C70.9028 227.386 68.9681 227.891 67.0308 228.38L67.3003 229.855C69.2447 229.364 71.1873 228.857 73.0732 228.349ZM84.5611 225.05L84.2208 223.595C82.3445 224.168 80.4234 224.736 78.5114 225.286L78.8276 226.748C80.7478 226.197 82.6767 225.626 84.5611 225.05ZM95.9582 221.361L95.5693 219.922C93.6987 220.562 91.7936 221.197 89.9071 221.808L90.2714 223.255C92.1663 222.642 94.0795 222.005 95.9582 221.361ZM107.249 217.274L106.81 215.852C104.969 216.555 103.083 217.256 101.204 217.937L101.617 219.368C103.505 218.684 105.399 217.98 107.249 217.274ZM118.416 212.783L117.927 211.382C116.091 212.159 114.226 212.928 112.386 213.667L112.849 215.079C114.699 214.336 116.571 213.564 118.416 212.783ZM129.442 207.887L128.901 206.509C127.098 207.349 125.258 208.186 123.432 208.996L123.947 210.386C125.781 209.572 127.63 208.731 129.442 207.887ZM140.309 202.585L139.718 201.231C137.937 202.14 136.124 203.045 134.331 203.92L134.896 205.287C136.698 204.407 138.519 203.498 140.309 202.585ZM151.004 196.905L150.372 195.573C148.48 196.611 146.744 197.551 145.064 198.444L145.678 199.786C147.364 198.889 149.106 197.947 151.004 196.905ZM161.578 191.008L160.933 189.683L159.576 190.445C158.284 191.171 156.978 191.904 155.656 192.643L156.299 193.969C157.622 193.229 158.929 192.496 160.222 191.769L161.578 191.008ZM172.156 185.175L171.54 183.834C169.931 184.694 168.19 185.642 166.22 186.733L166.857 188.062C168.82 186.975 170.554 186.031 172.156 185.175ZM182.902 179.787L182.367 178.406C180.61 179.217 178.827 180.078 176.915 181.04L177.498 182.398C179.393 181.444 181.161 180.59 182.902 179.787ZM193.945 175.292L193.549 173.856C191.708 174.497 189.81 175.216 187.908 175.993L188.38 177.402C190.256 176.635 192.129 175.925 193.945 175.292ZM205.32 172.082L205.102 170.595C203.172 171.01 201.215 171.498 199.287 172.044L199.598 173.507C201.495 172.97 203.421 172.491 205.32 172.082ZM216.905 170.351L216.872 168.837C214.896 169.005 212.911 169.237 210.972 169.525L211.096 171.03C213.005 170.746 214.96 170.517 216.905 170.351ZM228.557 170.003L228.672 168.483C226.665 168.446 224.967 168.467 223.571 168.493C223.306 168.497 223.041 168.503 222.777 168.51L222.725 170.03C222.985 170.023 223.246 170.017 223.508 170.012C224.892 169.987 226.573 169.966 228.557 170.003ZM240.115 170.852L240.388 169.344C238.477 169.094 236.513 168.893 234.55 168.75L234.358 170.266C236.294 170.408 238.231 170.605 240.115 170.852ZM251.415 173.047L251.859 171.572C250.002 171.087 248.086 170.652 246.165 170.28L245.809 171.774C247.701 172.14 249.588 172.569 251.415 173.047ZM240.402 199.321L239.242 198.454C238.016 200.131 236.826 201.84 235.706 203.535L236.911 204.338C238.017 202.664 239.191 200.976 240.402 199.321ZM230.72 214.856C231.639 213.08 232.633 211.284 233.675 209.516L232.426 208.787C231.368 210.58 230.359 212.403 229.427 214.205L230.72 214.856ZM248.046 189.789L246.976 188.81C245.614 190.367 244.279 191.961 243.006 193.546L244.121 194.472C245.379 192.905 246.7 191.329 248.046 189.789ZM225.777 225.979C226.473 224.105 227.248 222.21 228.077 220.347L226.741 219.784C225.897 221.678 225.11 223.605 224.402 225.512L225.777 225.979ZM256.44 180.926L255.459 179.854C253.986 181.292 252.53 182.77 251.132 184.246L252.157 185.273C253.542 183.813 254.983 182.35 256.44 180.926ZM222.327 237.592C222.759 235.651 223.271 233.68 223.849 231.736L222.44 231.372C221.851 233.353 221.329 235.36 220.889 237.339L222.327 237.592ZM265.471 172.75L264.582 171.594C263.429 172.56 262.272 173.558 261.128 174.574C259.917 174.101 258.684 173.653 257.442 173.236L256.909 174.684C257.987 175.046 259.059 175.432 260.114 175.836L260.881 176.749C261.037 176.607 261.194 176.466 261.352 176.324C261.657 176.447 261.96 176.571 262.261 176.697L262.886 175.284C262.804 175.25 262.721 175.215 262.638 175.181C263.579 174.354 264.526 173.54 265.471 172.75ZM220.576 249.506L220.651 248.592C220.79 246.906 220.985 245.2 221.231 243.524L219.772 243.386C219.521 245.096 219.321 246.835 219.179 248.555L219.104 249.47L220.576 249.506ZM275.12 165.436L274.4 164.156C273.893 164.479 273.552 164.704 273.39 164.813C273.229 164.922 271.739 165.931 269.373 167.746L270.208 168.946C272.536 167.16 273.988 166.176 274.146 166.07C274.303 165.964 274.631 165.747 275.12 165.436ZM220.318 261.467C220.201 259.57 220.172 257.621 220.229 255.509L218.753 255.559C218.696 257.716 218.725 259.71 218.844 261.653L220.318 261.467ZM285.617 159.461L285.018 158.111C283.18 159.063 281.378 160.039 279.661 161.012L280.313 162.333C282.012 161.37 283.797 160.403 285.617 159.461ZM272.409 181.885L273.221 180.567C271.587 179.563 269.883 178.607 268.158 177.726L267.439 179.096C269.133 179.961 270.805 180.9 272.409 181.885ZM296.481 154.313L295.981 152.916C294.129 153.715 292.271 154.557 290.46 155.416L291.01 156.789C292.805 155.938 294.645 155.105 296.481 154.313ZM222.418 272.972C221.831 271.205 221.354 269.305 221.002 267.324L219.549 267.684C219.914 269.736 220.409 271.706 221.018 273.54L222.418 272.972ZM282.584 187.43C281.126 186.165 279.597 184.946 278.041 183.806L277.138 185.062C278.664 186.179 280.163 187.376 281.595 188.617L282.584 187.43ZM307.625 149.965L307.229 148.528C305.359 149.181 303.455 149.884 301.572 150.618L302.022 152.036C303.887 151.308 305.772 150.611 307.625 149.965ZM227.834 282.957C226.648 281.518 225.587 279.934 224.679 278.249L223.378 279.046C224.329 280.812 225.441 282.472 226.684 283.98L227.834 282.957ZM318.999 146.487L318.716 145.016C316.81 145.516 314.869 146.068 312.946 146.657L313.286 148.112C315.191 147.529 317.113 146.982 318.999 146.487ZM290.839 195.626C289.241 193.829 287.783 192.358 286.825 191.408L285.768 192.533C286.712 193.47 288.151 194.921 289.723 196.689L290.839 195.626ZM235.775 291.371L236.513 290.011C235.882 289.676 235.257 289.315 234.656 288.938C233.67 288.32 232.719 287.64 231.828 286.917L230.872 288.133C231.806 288.89 232.802 289.603 233.833 290.249C234.462 290.643 235.115 291.021 235.775 291.371ZM330.546 143.983L330.392 142.485C328.46 142.813 326.489 143.195 324.535 143.619L324.755 145.106C326.688 144.686 328.636 144.309 330.546 143.983ZM297.884 204.979C296.868 203.352 295.746 201.725 294.551 200.144L293.365 201.121C294.536 202.67 295.634 204.262 296.629 205.855L297.884 204.979ZM342.193 142.585L342.184 141.069C340.24 141.202 338.253 141.389 336.279 141.628L336.363 143.138C338.313 142.902 340.274 142.717 342.193 142.585ZM246.917 295.027L247.231 293.525C245.321 293.217 243.463 292.772 241.706 292.202L241.187 293.655C243.01 294.246 244.938 294.707 246.917 295.027ZM303.152 215.575C302.463 213.743 301.663 211.91 300.775 210.128L299.452 210.886C300.319 212.624 301.099 214.411 301.771 216.197L303.152 215.575ZM353.832 142.434L353.985 140.916C352.047 140.829 350.065 140.798 348.093 140.825L348.022 142.345C349.968 142.319 351.923 142.349 353.832 142.434ZM258.767 295.344L258.715 293.831C256.776 294.021 254.832 294.093 252.937 294.046L252.813 295.565C254.766 295.614 256.769 295.539 258.767 295.344ZM306.14 227.196C305.855 225.212 305.457 223.222 304.957 221.282L303.529 221.754C304.015 223.64 304.402 225.576 304.679 227.506L306.14 227.196ZM270.519 292.772L270.123 291.336C268.303 291.97 266.402 292.505 264.473 292.925L264.694 294.411C266.682 293.978 268.643 293.426 270.519 292.772ZM365.316 143.661L365.644 142.161C363.74 141.834 361.789 141.563 359.843 141.356L359.604 142.868C361.52 143.071 363.442 143.338 365.316 143.661ZM306.569 239.361C306.706 237.292 306.741 235.235 306.674 233.248L305.199 233.392C305.264 235.328 305.23 237.331 305.096 239.348L306.569 239.361ZM281.444 287.235L280.675 285.988C279.035 287.117 277.314 288.141 275.56 289.029L276.147 290.385C277.963 289.465 279.745 288.405 281.444 287.235ZM304.653 251.508C305.149 249.513 305.563 247.479 305.882 245.463L304.425 245.307C304.113 247.277 303.709 249.265 303.224 251.216L304.653 251.508ZM290.687 278.968L289.619 277.987C288.277 279.513 286.851 280.957 285.381 282.275L286.312 283.395C287.831 282.033 289.302 280.544 290.687 278.968ZM300.636 263.226C301.468 261.353 302.231 259.408 302.902 257.446L301.513 257.019C300.857 258.936 300.112 260.835 299.3 262.663L300.636 263.226ZM296.272 271.449C296.812 270.588 297.343 269.693 297.85 268.789L296.583 268.089C295.579 269.879 294.492 271.607 293.357 273.225L294.536 274.066C295.129 273.22 295.713 272.34 296.272 271.449ZM376.466 146.356L376.975 144.9C375.136 144.32 373.247 143.795 371.362 143.341L370.945 144.822C372.798 145.269 374.656 145.785 376.466 146.356ZM387.086 150.542L387.771 149.156C386.034 148.326 384.244 147.547 382.452 146.841L381.853 148.265C383.616 148.96 385.376 149.726 387.086 150.542ZM397.854 154.858C397.303 154.495 396.751 154.14 396.197 153.793C395.115 153.114 394.009 152.455 392.911 151.833L392.141 153.176C393.222 153.787 394.31 154.436 395.375 155.104C395.921 155.446 396.463 155.795 397.005 156.153L397.854 154.858ZM407.091 161.865C405.745 160.699 404.346 159.559 402.934 158.476L402.613 158.232L401.662 159.452L402.007 159.714C403.398 160.781 404.776 161.904 406.101 163.052L407.091 161.865ZM415.363 170.006C414.075 168.567 412.726 167.152 411.352 165.8L410.299 166.928C411.652 168.26 412.982 169.655 414.25 171.072L415.363 170.006ZM422.588 179.159C421.478 177.561 420.309 175.982 419.112 174.465L417.944 175.465C419.123 176.96 420.276 178.516 421.369 180.091L422.588 179.159ZM428.688 189.178C427.769 187.446 426.791 185.727 425.782 184.069L424.518 184.931C425.513 186.565 426.476 188.259 427.382 189.966L428.688 189.178ZM433.613 199.91C432.894 198.076 432.115 196.243 431.299 194.464L429.958 195.179C430.762 196.933 431.53 198.741 432.239 200.551L433.613 199.91ZM437.33 211.207C436.813 209.29 436.239 207.368 435.623 205.498L434.222 206.061C434.829 207.907 435.396 209.802 435.905 211.694L437.33 211.207ZM439.824 222.925C439.512 220.95 439.144 218.964 438.731 217.022L437.289 217.431C437.696 219.347 438.058 221.307 438.366 223.256L439.824 222.925ZM441.087 234.923C440.98 232.917 440.819 230.89 440.61 228.897L439.142 229.15C439.349 231.116 439.507 233.118 439.613 235.097L441.087 234.923ZM441.12 247.069C441.216 245.045 441.261 242.999 441.256 240.986L439.78 241.082C439.785 243.068 439.739 245.088 439.645 247.086L441.12 247.069ZM439.935 259.23C440.232 257.219 440.482 255.175 440.678 253.156L439.21 253.094C439.015 255.088 438.768 257.105 438.475 259.092L439.935 259.23ZM437.557 271.262C438.05 269.278 438.5 267.262 438.893 265.269L437.447 265.053C437.058 267.021 436.615 269.011 436.128 270.969L437.557 271.262ZM434.02 283.054C434.7 281.125 435.342 279.154 435.931 277.195L434.522 276.828C433.942 278.762 433.307 280.708 432.635 282.613L434.02 283.054Z" fill="#FC9C29" fill-opacity="0.23"/>
<path d="M39.0113 253.356C35.5751 247.683 32.139 242.01 28.7029 236.337L0.0491513 240.674L39.0113 253.356Z" fill="#19C6D8" fill-opacity="0.3"/>
<path d="M35.84 216.749C33.4446 223.304 31.0494 229.86 28.6538 236.416L3.27361e-05 240.753L35.84 216.749Z" fill="#6EE1F4" fill-opacity="0.3"/>
</svg>
