<svg width="39" height="39" viewBox="0 0 39 39" fill="none" xmlns="http://www.w3.org/2000/svg">
<g clip-path="url(#clip0)">
<path d="M1.47125 10.8353L3.84625 10.8339L3.84904 15.5839L1.47404 15.5853L1.47125 10.8353Z" fill="#B4DD7F"/>
<path d="M6.21985 8.45752L8.59485 8.45613L8.59903 15.5811L6.22403 15.5825L6.21985 8.45752Z" fill="#B4DD7F"/>
<path d="M13.3434 6.07832L13.3473 12.6096C13.0684 12.9838 12.8015 13.3818 12.5702 13.7975C12.2261 14.3796 11.9415 14.9913 11.7044 15.6327L11.5678 15.5794L10.974 15.5797L10.9684 6.07971L13.3434 6.07832Z" fill="#B4DD7F"/>
<path d="M22.8445 7.85408C21.1523 7.85507 19.5494 8.21226 18.0951 8.84843L18.0934 6.07561L16.3122 6.07666L20.4656 1.32422L24.6247 6.07178L22.8434 6.07283L22.8445 7.85408Z" fill="#FCD770"/>
<path d="M32.3406 1.31726L36.4997 6.06482L34.7184 6.06587L34.7264 19.7221C34.7252 17.5609 34.1421 15.5306 33.1258 13.7856C32.3293 12.3966 31.2539 11.186 29.9709 10.2249L29.9684 6.06866L28.1872 6.0697L32.3406 1.31726Z" fill="#FCD770"/>
<path d="M4.44977 27.4586L7.41852 27.4568L7.41921 28.6443L7.4234 35.7693L7.42409 36.9568L1.48659 36.9603L1.48102 27.4603L4.44977 27.4586Z" fill="#CCD1D9"/>
<path d="M22.8584 31.6041C29.4168 31.6003 34.7303 26.2805 34.7264 19.7221C34.7226 13.1638 29.4029 7.85026 22.8445 7.85411C16.2861 7.85796 10.9726 13.1777 10.9765 19.7361C10.9803 26.2945 16.3 31.608 22.8584 31.6041Z" fill="#69D6F4"/>
<path d="M14.0033 27.6252L17.6768 24.6128L18.84 23.6621C19.1308 23.4244 19.4989 23.2936 19.873 23.2933L20.0392 23.2932C20.9358 23.2927 21.6665 24.0226 21.667 24.9192C21.6672 25.1567 21.6139 25.3883 21.519 25.5961C21.4182 25.8099 21.2758 26 21.0978 26.1545L19.1868 27.7944L17.5133 29.2322L17.5137 29.826L18.6957 30.615C19.0877 30.876 19.545 31.0123 20.014 31.012L21.9319 31.0109L23.7844 31.0098L26.0287 31.0085C26.6581 31.0081 27.2636 30.7584 27.7086 30.3128L31.8624 26.1541C32.1769 25.8393 32.6043 25.6609 33.0497 25.6606C33.0734 25.6606 33.0972 25.6665 33.1209 25.6665L33.1209 25.6606L33.1268 25.6606C33.5603 25.6841 33.9523 25.8679 34.2374 26.1527C34.5404 26.4554 34.7307 26.8768 34.731 27.3399L34.731 27.3459C34.7312 27.7853 34.5593 28.2069 34.2448 28.5218C33.1292 29.6387 30.3877 32.3834 29.278 33.4944C28.9635 33.8093 28.5658 34.0292 28.1324 34.1304L21.3409 35.7019C21.1687 35.7435 20.9906 35.7614 20.8065 35.7616L7.4234 35.7694L7.41921 28.6444L12.763 28.6413L14.0033 27.6252Z" fill="#F0D0B4"/>
<path d="M3.8598 33.9902L5.0473 33.9895L5.048 35.177L3.8605 35.1777L3.8598 33.9902Z" fill="black"/>
<path d="M32.3401 0.415367L26.8789 6.66423L29.3751 6.66277L29.3765 9.12445C27.6326 8.04723 25.6087 7.39232 23.4379 7.29028L23.4376 6.66625L25.9337 6.66479L20.4651 0.422337L15.0039 6.6712L17.5001 6.66974L17.5011 8.48364C16.1679 9.12093 14.9613 9.97901 13.9401 11.0246L13.9369 5.48433L10.3744 5.48642L10.3799 14.9864L9.19244 14.9871L9.18826 7.86211L5.62576 7.86421L5.62994 14.9892L4.44244 14.9899L4.43966 10.2399L0.877156 10.242L0.880641 16.1795L10.9055 16.1736C10.5689 17.3037 10.382 18.4979 10.3827 19.7364C10.3844 22.5823 11.3758 25.3266 13.1673 27.5426L12.5506 28.0476L8.01261 28.0503L8.01191 26.8628L0.886914 26.867L0.893187 37.5545L8.01819 37.5503L8.01749 36.3628L20.8092 36.3553C21.0343 36.3552 21.2593 36.3295 21.4766 36.2789L28.2676 34.7074C28.8102 34.5812 29.304 34.3072 29.6962 33.9145L34.6642 28.9407C35.0903 28.5154 35.3251 27.9482 35.3247 27.3396C35.3249 26.7322 35.0883 26.1611 34.6588 25.7321C34.4669 25.5404 34.2406 25.3987 33.9988 25.2925C34.8653 23.5612 35.3214 21.6509 35.3202 19.7218L35.3126 6.65928L37.8087 6.65782L32.3401 0.415367ZM3.25494 14.9906L2.06744 14.9913L2.06535 11.4288L3.25285 11.4281L3.25494 14.9906ZM19.0722 28.6791C19.5606 29.3682 20.0597 29.945 20.5208 30.418L20.0143 30.4183C19.6616 30.4185 19.3201 30.3148 19.0261 30.1196L18.1072 29.508L19.0722 28.6791ZM22.2587 30.417C21.6438 29.8996 20.7913 29.0682 19.9784 27.9008L21.4863 26.6055C21.6074 26.5016 21.7148 26.3857 21.8097 26.261L26.7171 26.2581C25.7225 28.2424 24.4248 29.6005 23.4574 30.4162L22.2587 30.417ZM16.1773 25.0768L12.942 25.0787C12.149 23.6179 11.6879 22.0002 11.5979 20.3295L16.3431 20.3267C16.3921 21.7439 16.6114 23.1106 16.9998 24.403L16.1773 25.0768ZM12.9167 14.3912L17.1941 14.3887C16.7175 15.7534 16.3913 17.3324 16.3329 19.1392L11.6002 19.142C11.6888 17.4319 12.1468 15.8184 12.9167 14.3912ZM22.8461 8.57313C23.556 9.08571 25.363 10.5809 26.6845 13.1956L19.0174 13.2001C20.3363 10.5904 22.1387 9.08833 22.8461 8.57313ZM27.2154 14.3828C27.7375 15.722 28.0994 17.3029 28.1688 19.1322L17.5335 19.1385C17.6007 17.3103 17.9632 15.7289 18.4861 14.3879L27.2154 14.3828ZM17.9992 23.5842C17.7267 22.5435 17.5717 21.4529 17.53 20.326L28.176 20.3197C28.1117 22.1509 27.7552 23.7287 27.2395 25.0703L22.2436 25.0732C22.2478 25.021 22.2608 24.9711 22.2608 24.9182C22.2601 23.6945 21.2632 22.6988 20.0388 22.6995L19.8714 22.6996C19.3608 22.6999 18.8615 22.8783 18.4663 23.2021L17.9992 23.5842ZM28.0085 26.2573L30.9202 26.2556L27.2892 29.8921C26.9575 30.2242 26.4986 30.4145 26.0302 30.4147L25.1918 30.4152C26.0902 29.4855 27.1688 28.1062 28.0085 26.2573ZM32.7726 25.067L28.4935 25.0695C28.976 23.7048 29.3016 22.1193 29.3623 20.319L34.1129 20.3162C34.0254 21.9723 33.5662 23.5964 32.7726 25.067ZM29.3693 19.1315C29.3083 17.3248 28.9808 15.7462 28.5026 14.382L32.78 14.3795C33.5515 15.8058 34.0114 17.4188 34.1021 19.1287L29.3693 19.1315ZM28.0293 13.1948C27.0721 11.0745 25.7864 9.57425 24.7723 8.62366C27.7544 9.13847 30.3358 10.8226 32.0288 13.1925L28.0293 13.1948ZM17.6205 5.48216L20.4662 2.22615L23.3157 5.47882L22.2494 5.47945L22.2504 7.29098C21.0066 7.35049 19.8115 7.59107 18.6883 7.99073L18.6869 5.48154L17.6205 5.48216ZM20.9177 8.62592C19.9053 9.5777 18.6207 11.0795 17.666 13.2009L13.6665 13.2032C15.3561 10.832 17.9355 9.14423 20.9177 8.62592ZM12.7501 6.67252L12.7535 12.4444C12.2972 13.0752 11.9004 13.7487 11.5671 14.4597L11.5626 6.67322L12.7501 6.67252ZM6.81396 9.05101L8.00146 9.05031L8.00494 14.9878L6.81744 14.9885L6.81396 9.05101ZM13.6801 26.2657L14.7269 26.2651L14.0853 26.791C13.9457 26.6183 13.8085 26.445 13.6801 26.2657ZM6.82999 36.3635L2.07999 36.3663L2.07511 28.0538L3.85636 28.0528L3.85915 32.8028L5.04665 32.8021L5.04386 28.0521L6.82511 28.051L6.82999 36.3635ZM33.8253 28.1011L28.8568 33.0755C28.6218 33.3107 28.325 33.4748 28.0003 33.5504L21.2093 35.1219C21.0781 35.1528 20.9433 35.1677 20.8085 35.1678L8.01679 35.1753L8.01331 29.2378L12.9753 29.2349L19.2185 24.1208C19.4025 23.9705 19.634 23.8872 19.8721 23.8871L20.0395 23.887C20.6095 23.8867 21.0729 24.3495 21.0733 24.9189C21.0735 25.2211 20.9418 25.5074 20.7133 25.7041L16.9194 28.9595L16.9201 30.144L18.3682 31.108C18.8577 31.4343 19.4272 31.6061 20.0144 31.6058L26.0303 31.6022C26.8229 31.6018 27.5685 31.292 28.1287 30.7312L32.2813 26.5725C32.6866 26.1673 33.4104 26.1639 33.8185 26.5716C34.0247 26.7769 34.137 27.0494 34.1372 27.345C34.1374 27.6312 34.0265 27.8997 33.8253 28.1011ZM30.5645 9.95085L30.5619 5.47457L29.4955 5.47519L32.3412 2.21918L35.1907 5.47185L34.1244 5.47248L34.1296 14.4464C33.3003 12.6841 32.0769 11.1464 30.5645 9.95085Z" fill="black"/>
</g>
<defs>
<clipPath id="clip0">
<rect width="38" height="38" fill="white" transform="translate(0.277466 0.14856) rotate(-0.0336302)"/>
</clipPath>
</defs>
</svg>
