<svg width="60" height="92" viewBox="0 0 60 92" fill="none" xmlns="http://www.w3.org/2000/svg">
<path d="M10.5762 32.5345H48.893V58.0446H10.5762V32.5345Z" fill="#2B4D66"/>
<path d="M59.528 70.7754V92.0001H0V70.7754C0 65.3239 3.46528 60.4777 8.6207 58.7135L9.19462 58.5173L12.7395 57.3048L14.4314 57.662L20.6253 55.5444L21.6472 54.2578H37.8814L38.9883 55.8461L45.4136 58.0453L46.7909 57.3048L50.334 58.5173L50.9079 58.7135C56.0628 60.4775 59.528 65.3239 59.528 70.7754Z" fill="#89DAA4"/>
<path d="M51.82 69.9201L32.0594 85.5361L26.5837 80.7361L28.8661 76.9006C32.3426 71.066 34.1788 64.3908 34.1788 57.5991V54.2578H37.8811L38.9879 55.8461L45.4132 58.0453L46.7905 57.3048L50.3336 58.5173L47.9161 63.1581L51.82 69.9201Z" fill="#6ECB8B"/>
<path d="M32.9443 80.7362L27.4686 85.5362L7.70801 69.92L11.6119 63.1579L9.19439 58.5171L12.7393 57.3045L14.4312 57.6618L20.625 55.5441L21.6469 54.2576H25.3492V57.5989C25.3492 64.3905 27.1854 71.0657 30.6619 76.9004L32.9443 80.7362Z" fill="#6ECB8B"/>
<path d="M25.3491 54.2585L12.3228 58.7141C7.16738 60.4783 3.70211 65.3244 3.70211 70.776V92.0009H0V70.7762C0 65.3246 3.46528 60.4784 8.6207 58.7143L12.7375 57.3055L14.4313 57.6627L20.6251 55.5451L21.647 54.2585H25.3491Z" fill="#6ECB8B"/>
<path d="M37.8811 40.728V57.5991C33.0035 60.9959 26.5245 60.9959 21.6469 57.5991V40.728H37.8811Z" fill="#FFCEBF"/>
<path d="M29.764 52.814C32.6888 52.814 35.4506 52.0976 37.8812 50.8295V40.728H25.2407H21.647V57.5991C24.6014 59.6565 28.1432 60.4676 31.5609 60.0326C29.3362 59.7494 27.1639 58.9383 25.2407 57.5991V52.2253C26.6849 52.6093 28.2011 52.814 29.764 52.814Z" fill="#FFB09E"/>
<path d="M48.9223 18.5977V25.875H10.6057V18.5977C10.6057 8.32673 18.9324 0 29.2034 0H30.3246C31.0128 0 31.6921 0.0377344 32.3605 0.111406C41.6737 1.12485 48.9223 9.01493 48.9223 18.5977Z" fill="#365E7D"/>
<path d="M33.3542 0.246891C33.0257 0.193164 32.6945 0.147883 32.3605 0.111586C31.6921 0.0377344 31.0128 0 30.3246 0H29.2034C18.9324 0 10.6057 8.32673 10.6057 18.5977V25.875H17.7932V18.5977C17.7932 9.36083 24.5276 1.69643 33.3542 0.246891Z" fill="#2B4D66"/>
<path d="M17.6859 23.7146H13.2397C11.2511 23.7146 9.63916 25.3266 9.63916 27.3152V30.0132C9.63916 32.0018 11.2511 33.6138 13.2397 33.6138H17.6859V23.7146Z" fill="#FFCEBF"/>
<path d="M13.9019 77.6244V91.8686C13.9019 91.9129 13.9001 91.9555 13.8945 91.9999H11.1327C11.1272 91.9555 11.1254 91.9129 11.1254 91.8686V77.6244C11.1254 76.858 11.7473 76.2361 12.5136 76.2361C13.2818 76.2361 13.9019 76.858 13.9019 77.6244Z" fill="#6ECB8B"/>
<path d="M48.1788 77.6244V91.8686C48.1788 91.9129 48.177 91.9555 48.1714 91.9999H45.4096C45.404 91.9555 45.4022 91.9129 45.4022 91.8686V77.6244C45.4022 76.858 46.0241 76.2361 46.7905 76.2361C47.5569 76.2361 48.1788 76.858 48.1788 77.6244Z" fill="#6ECB8B"/>
<path d="M41.842 23.7145H46.2882C48.2768 23.7145 49.8888 25.3266 49.8888 27.3151V30.0131C49.8888 32.0017 48.2767 33.6137 46.2882 33.6137H41.842V23.7145Z" fill="#FFCEBF"/>
<path d="M15.8348 22.9964V35.1824C15.8348 42.8754 22.0711 49.1116 29.7641 49.1116C37.457 49.1116 43.6933 42.8754 43.6933 35.1824V22.9964H39.7657C37.2265 22.9964 34.9723 21.3718 34.1689 18.9631L32.6391 14.3751L31.109 18.9631C30.3058 21.3718 28.0514 22.9964 25.5123 22.9964H15.8348Z" fill="#FFEEE6"/>
<path d="M31.6152 48.9895C31.0098 49.0709 30.3917 49.1117 29.764 49.1117C22.0709 49.1117 15.8345 42.8752 15.8345 35.1821V22.9962H19.5368V35.1821C19.5366 42.2478 24.7975 48.0844 31.6152 48.9895Z" fill="#FFDFCF"/>
<path d="M23.7696 32.9393C23.0029 32.9393 22.3813 32.3178 22.3813 31.5511V29.7288C22.3813 28.9621 23.0029 28.3406 23.7696 28.3406C24.5363 28.3406 25.1579 28.9621 25.1579 29.7288V31.5511C25.1581 32.3178 24.5363 32.9393 23.7696 32.9393Z" fill="#98695E"/>
<path d="M35.731 32.9393C34.9643 32.9393 34.3428 32.3178 34.3428 31.5511V29.7288C34.3428 28.9621 34.9643 28.3406 35.731 28.3406C36.4978 28.3406 37.1193 28.9621 37.1193 29.7288V31.5511C37.1193 32.3178 36.4978 32.9393 35.731 32.9393Z" fill="#98695E"/>
<path d="M29.764 43.2348C27.0786 43.2348 24.8939 41.0501 24.8939 38.3647C24.8939 37.598 25.5155 36.9764 26.2822 36.9764C27.0489 36.9764 27.6705 37.598 27.6705 38.3647C27.6705 39.519 28.6095 40.4581 29.7638 40.4581C30.9181 40.4581 31.8572 39.519 31.8572 38.3647C31.8572 37.598 32.4787 36.9764 33.2454 36.9764C34.0122 36.9764 34.6337 37.598 34.6337 38.3647C34.6341 41.0501 32.4494 43.2348 29.764 43.2348Z" fill="#FFB09E"/>
<path d="M31.1523 82.6317V91.8687C31.1523 91.9131 31.1505 91.9557 31.1449 92.0001H28.3831C28.3775 91.9557 28.3757 91.9131 28.3757 91.8687V82.6317C28.3757 81.8635 28.9976 81.2434 29.764 81.2434C30.5304 81.2432 31.1523 81.8633 31.1523 82.6317Z" fill="#6ECB8B"/>
<path d="M21.6464 54.2582V57.5986C21.6464 65.0608 23.662 72.3844 27.48 78.7958L29.764 82.6311L12.5142 68.9999L15.8348 63.2499L12.737 57.3055L21.6464 54.2582Z" fill="#AEE69C"/>
<path d="M37.8816 54.2582V57.5986C37.8816 65.0608 35.8661 72.3844 32.048 78.7958L29.764 82.6311L47.0139 68.9999L43.6933 63.2499L46.7911 57.3055L37.8816 54.2582Z" fill="#AEE69C"/>
</svg>
