<svg width="39" height="39" viewBox="0 0 39 39" fill="none" xmlns="http://www.w3.org/2000/svg">
<g clip-path="url(#clip0)">
<path d="M18.1452 22.1047L20.5202 22.1033L20.5216 24.4783L18.1466 24.4797L18.1452 22.1047Z" fill="#FA9F0C"/>
<path d="M19.9306 29.2286C19.9308 30.0852 20.2092 30.9185 20.7239 31.6032L4.69264 31.6126C4.17836 30.9277 3.90009 30.0945 3.89959 29.238C3.89908 28.3816 4.17638 27.548 4.68985 26.8626L20.7211 26.8532C20.2077 27.5387 19.9303 28.3722 19.9306 29.2286Z" fill="#92563A"/>
<path d="M32.398 26.8464L20.7209 26.8533C20.2074 27.5388 19.9301 28.3723 19.9306 29.2288C19.9311 30.0852 20.2094 30.9184 20.7236 31.6033L32.4008 31.5964C31.8865 30.9116 31.6082 30.0784 31.6077 29.2219C31.6072 28.3654 31.8845 27.5319 32.398 26.8464Z" fill="#EAD7BC"/>
<path d="M22.8966 24.477L19.9279 24.4788C20.5577 24.4784 21.162 24.7283 21.6076 25.1734C22.0533 25.6185 22.3039 26.2225 22.3043 26.8524L25.273 26.8506C25.2726 26.2207 25.0221 25.6168 24.5764 25.1717C24.1307 24.7265 23.5265 24.4766 22.8966 24.477Z" fill="#FFA912"/>
<path d="M27.6385 10.818C27.639 11.4162 27.5797 12.013 27.4614 12.5994C27.1542 14.1133 26.4571 15.5207 25.4391 16.6826C25.1781 16.981 24.8976 17.2619 24.5995 17.5232C23.3129 18.6518 21.7282 19.3855 20.0353 19.6367C18.3424 19.8878 16.613 19.6457 15.0541 18.9393C13.4953 18.2329 12.1731 17.0921 11.2459 15.6537C10.3186 14.2152 9.82569 12.5399 9.82603 10.8285C9.82553 10.2303 9.88485 9.63352 10.0031 9.04712C10.3103 7.53323 11.0074 6.12577 12.0254 4.9639C12.89 3.97477 13.9619 3.18833 15.165 2.66054C16.5202 2.06828 18.0015 1.82281 19.4753 1.94627C20.9491 2.06974 22.3689 2.55825 23.6067 3.36772C24.8444 4.1772 25.8612 5.28215 26.565 6.58285C27.2689 7.88356 27.6379 9.33907 27.6385 10.818Z" fill="#348FD9"/>
<path d="M27.6386 10.8179C27.6391 11.4162 27.5797 12.0129 27.4615 12.5993C27.1543 14.1132 26.4572 15.5207 25.4392 16.6825C25.1782 16.981 24.8977 17.2618 24.5995 17.5232C23.4629 18.5185 22.0918 19.2084 20.6152 19.5279C19.1385 19.8474 17.6049 19.7861 16.1585 19.3497C14.7121 18.9133 13.4004 18.1162 12.3469 17.0333C11.2934 15.9504 10.5326 14.6173 10.1362 13.1594C11.5278 13.9996 13.1233 14.442 14.7489 14.4385C15.028 14.4383 15.3036 14.4253 15.5757 14.3994C16.9025 14.2783 18.1849 13.8595 19.3275 13.1741C20.9898 12.1786 22.2838 10.6701 23.0146 8.8756C23.7455 7.08112 23.8737 5.09779 23.3799 3.22416C24.6806 4.01927 25.7554 5.13514 26.5011 6.46482C27.2468 7.79451 27.6384 9.29344 27.6386 10.8179Z" fill="#3086CD"/>
<path d="M21.1095 14.3842L18.7362 17.3544L16.3612 17.3557L16.3602 15.5745L15.5757 14.3993L15.1716 13.7939L15.1702 11.4189L19.3265 11.4165L19.3282 14.3853L21.1095 14.3842Z" fill="#7EB457"/>
<path d="M18.7306 7.85451L16.3556 7.8559L15.1691 9.63785L15.1702 11.4191L12.7952 11.4205L12.2 9.04584L10.0031 9.04713C10.3104 7.53324 11.0074 6.12577 12.0254 4.96391C12.89 3.97478 13.962 3.18834 15.165 2.66054L15.1667 5.4816L17.5417 5.4802L18.7306 7.85451Z" fill="#7EB457"/>
<path d="M27.6386 10.818C27.6391 11.4162 27.5798 12.0129 27.4615 12.5993L25.2646 12.6006L23.4827 11.4142L23.4813 9.03916L23.1596 8.50349L21.6983 6.07145L21.6962 2.42212C23.4329 3.03592 24.9367 4.17275 26.0009 5.67624C27.065 7.17972 27.6371 8.976 27.6386 10.818Z" fill="#7EB457"/>
<path d="M19.3281 14.3853L21.1093 14.3843L18.7361 17.3544L16.3611 17.3558L16.36 15.5746L15.5756 14.3994C16.9024 14.2783 18.1849 13.8595 19.3274 13.1741L19.3281 14.3853Z" fill="#79AD54"/>
<path d="M27.6386 10.818C27.6391 11.4162 27.5797 12.013 27.4615 12.5994L25.2646 12.6007L23.4827 11.4142L23.4813 9.03921L23.1596 8.50354C23.7615 6.80582 23.8383 4.9662 23.3799 3.22423C24.6806 4.01934 25.7554 5.13521 26.5011 6.4649C27.2468 7.79458 27.6384 9.29351 27.6386 10.818Z" fill="#79AD54"/>
<path d="M22.5187 33.982C22.5189 34.8386 22.7973 35.6719 23.312 36.3566L7.28053 36.366C6.76625 35.6811 6.48798 34.8479 6.48748 33.9915C6.48698 33.135 6.76427 32.3015 7.27774 31.616L23.309 31.6066C22.7956 32.2921 22.5182 33.1256 22.5185 33.982L22.5187 33.982Z" fill="#92563A"/>
<path d="M23.3089 31.6067C23.0399 31.9651 22.8341 32.3669 22.7003 32.7945L6.66903 32.804C6.80286 32.3763 7.00869 31.9745 7.27767 31.6161L23.3089 31.6067Z" fill="#875036"/>
<path d="M34.986 31.5999L23.309 31.6067C22.7955 32.2922 22.5182 33.1257 22.5187 33.9822C22.5192 34.8386 22.7975 35.6718 23.3118 36.3567L34.9888 36.3499C34.4746 35.665 34.1963 34.8318 34.1958 33.9753C34.1953 33.1189 34.4726 32.2853 34.986 31.5999Z" fill="#DFCDB3"/>
<path d="M32.8731 27.2024C32.9393 27.1141 32.9795 27.0092 32.9893 26.8994C32.9992 26.7895 32.9782 26.6791 32.9289 26.5805C32.8795 26.4819 32.8036 26.399 32.7098 26.3411C32.616 26.2832 32.5079 26.2526 32.3976 26.2526L25.807 26.2565C25.6688 25.5865 25.3039 24.9846 24.7736 24.5522C24.2434 24.1199 23.5803 23.8836 22.8962 23.8832L21.1149 23.8843L21.1141 22.4524C23.1981 22.0307 25.1295 21.0537 26.704 19.6248L27.8179 20.7374L28.6572 19.8972L27.5426 18.784C27.8562 18.4376 28.1493 18.0731 28.4202 17.6924L27.4524 17.0045C27.2197 17.3312 26.9689 17.6446 26.7012 17.9433L25.8564 17.0994C27.4538 15.2872 28.3004 12.9342 28.2237 10.5197C28.147 8.10511 27.1528 5.81059 25.4436 4.1034C23.7343 2.39622 21.4386 1.40476 19.024 1.33095C16.6093 1.25714 14.2574 2.10654 12.447 3.70614L11.6022 2.86218C11.9006 2.59414 12.2137 2.34303 12.5402 2.11001L11.851 1.1429C11.4708 1.41435 11.1068 1.70786 10.7609 2.02192L9.64631 0.908625L8.8071 1.74883L9.92103 2.86146C5.70792 7.51952 5.84842 14.7383 10.3402 19.225C12.2765 21.1625 14.8255 22.3674 17.5517 22.6338L17.5524 23.8863L15.7712 23.8874C14.9841 23.8887 14.2297 24.2022 13.6735 24.7591C13.1172 25.316 12.8046 26.0708 12.8042 26.8579C12.8043 27.0154 12.8669 27.1663 12.9783 27.2776C13.0898 27.3889 13.2408 27.4514 13.3983 27.4513L15.5446 27.45C15.308 28.0141 15.1863 28.6198 15.1866 29.2315C15.187 29.8432 15.3094 30.4487 15.5467 31.0125L8.56733 31.0166C8.23613 30.4816 8.0605 29.8649 8.06013 29.2357C8.05976 28.6064 8.23467 27.9895 8.56524 27.4541L11.617 27.4523L11.6163 26.2648L4.68929 26.2689C4.59711 26.269 4.50621 26.2905 4.42379 26.3317C4.34137 26.373 4.26969 26.4329 4.21442 26.5067C3.62751 27.2965 3.31085 28.2545 3.31143 29.2385C3.312 30.2225 3.62979 31.1801 4.21763 31.9692C4.27298 32.0429 4.34473 32.1027 4.4272 32.1439C4.50967 32.185 4.60059 32.2065 4.69277 32.2064L6.04741 32.2056C5.7382 32.9404 5.62611 33.7431 5.72222 34.5345C5.81833 35.3258 6.11932 36.0784 6.59542 36.7178C6.65077 36.7915 6.72252 36.8513 6.80499 36.8925C6.88746 36.9336 6.97838 36.9551 7.07056 36.955L34.7789 36.9387C34.8891 36.9387 34.9972 36.9079 35.091 36.8499C35.1847 36.7919 35.2605 36.7089 35.3097 36.6102C35.359 36.5116 35.3798 36.4011 35.3698 36.2913C35.3599 36.1815 35.3195 36.0766 35.2533 35.9885C34.8188 35.4052 34.584 34.6974 34.5835 33.9701C34.5831 33.2428 34.8172 32.5347 35.2509 31.951C35.317 31.8627 35.3573 31.7578 35.3671 31.648C35.3769 31.5381 35.356 31.4277 35.3066 31.3291C35.2573 31.2305 35.1814 31.1476 35.0876 31.0897C34.9938 31.0318 34.8856 31.0012 34.7754 31.0012L32.7131 31.0024C32.356 30.4259 32.1803 29.7554 32.2088 29.0778C32.2374 28.4002 32.4688 27.7468 32.8731 27.2024ZM31.3777 27.4407C31.2185 27.8205 31.1114 28.22 31.0593 28.6284L20.5811 28.6346C20.6549 28.2134 20.8086 27.8102 21.034 27.4468L31.3777 27.4407ZM22.0808 35.7587L19.2576 35.7603C18.9264 35.2253 18.7508 34.6086 18.7504 33.9794C18.75 33.3502 18.925 32.7333 19.2555 32.1978L22.0787 32.1962C21.842 32.7603 21.7203 33.3659 21.7207 33.9777C21.721 34.5894 21.8434 35.1949 22.0808 35.7587ZM10.943 32.2027L17.9224 32.1986C17.6858 32.7627 17.5641 33.3684 17.5644 33.9801C17.5648 34.5918 17.6872 35.1973 17.9245 35.7611L10.9451 35.7652C10.6139 35.2302 10.4383 34.6135 10.4379 33.9843C10.4375 33.355 10.6125 32.7381 10.943 32.2027ZM27.0448 10.8183C27.0449 11.2156 27.0167 11.6125 26.9603 12.0058L25.444 12.0067L24.0762 11.096L24.075 9.03876C24.0749 8.93115 24.0456 8.82559 23.9902 8.73333L22.2919 5.90659L22.2904 3.31168C23.7111 3.98594 24.9117 5.0489 25.7531 6.37743C26.5946 7.70596 27.0424 9.24569 27.0448 10.8183ZM21.1026 2.85556L21.1045 6.07176C21.1046 6.17937 21.1339 6.28493 21.1893 6.37719L22.8876 9.20393L22.8889 11.4145C22.8889 11.5122 22.9131 11.6084 22.9593 11.6946C23.0055 11.7807 23.0722 11.8541 23.1535 11.9083L24.9355 13.0948C25.0331 13.1597 25.1477 13.1944 25.2649 13.1943L26.6999 13.1935C26.1016 15.2061 24.7638 16.9177 22.9553 17.9845C21.1468 19.0513 19.0016 19.3942 16.9507 18.9442C14.8998 18.4943 13.0952 17.2849 11.8994 15.5591C10.7035 13.8332 10.2051 11.7187 10.5043 9.64048L11.7368 9.63976L12.2192 11.5647C12.2514 11.6932 12.3256 11.8072 12.43 11.8886C12.5344 11.97 12.6631 12.0142 12.7955 12.0141L14.5767 12.0131L14.5778 13.7943C14.5778 13.9116 14.6126 14.0262 14.6777 14.1237L15.7664 15.7546L15.7674 17.3561C15.7675 17.5136 15.8301 17.6646 15.9415 17.7759C16.0529 17.8872 16.204 17.9496 16.3615 17.9495L18.7365 17.9481C18.8255 17.9481 18.9134 17.9281 18.9936 17.8895C19.0738 17.8509 19.1444 17.7948 19.2 17.7252L21.5732 14.7551C21.6431 14.6677 21.6869 14.5624 21.6995 14.4512C21.7121 14.34 21.6931 14.2276 21.6445 14.1268C21.596 14.026 21.52 13.9409 21.4253 13.8814C21.3305 13.8219 21.2209 13.7904 21.109 13.7905L19.9215 13.7912L19.9201 11.4162C19.92 11.2587 19.8574 11.1077 19.746 10.9965C19.6346 10.8852 19.4835 10.8227 19.326 10.8228L15.7635 10.8249L15.7629 9.81715L16.6736 8.44936L18.7309 8.44815C18.8321 8.44809 18.9316 8.42215 19.02 8.37281C19.1083 8.32347 19.1826 8.25236 19.2358 8.16624C19.2889 8.08011 19.3192 7.98183 19.3237 7.88072C19.3282 7.77961 19.3067 7.67903 19.2614 7.58853L18.0725 5.21423C18.0232 5.11564 17.9473 5.03275 17.8535 4.97484C17.7597 4.91693 17.6516 4.88629 17.5413 4.88635L15.76 4.88739L15.759 3.06087C17.4689 2.40572 19.3474 2.33355 21.1026 2.85556ZM19.3285 14.9791L19.8744 14.9787L18.4504 16.7608L16.9545 16.7617L16.9538 15.5742C16.9537 15.457 16.919 15.3424 16.8539 15.2449L15.7652 13.6139L15.7642 12.0124L18.733 12.0106L18.7344 14.3856C18.7345 14.5431 18.7971 14.6941 18.9085 14.8054C19.0199 14.9167 19.171 14.9791 19.3285 14.9791ZM14.5718 3.62897L14.5729 5.48184C14.573 5.63931 14.6356 5.7903 14.747 5.90158C14.8585 6.01287 15.0095 6.07533 15.167 6.07524L17.1751 6.07406L17.7695 7.26121L16.3552 7.26204C16.2575 7.2621 16.1612 7.28629 16.0751 7.33246C15.9889 7.37863 15.9155 7.44535 15.8613 7.5267L14.6749 9.30865C14.6099 9.40623 14.5753 9.52086 14.5753 9.63809L14.576 10.8256L13.2584 10.8264L12.7759 8.90141C12.7437 8.77297 12.6695 8.65897 12.5651 8.57753C12.4607 8.4961 12.3321 8.45191 12.1996 8.45198L10.7647 8.45283C11.3745 6.41942 12.7358 4.69457 14.5718 3.62897ZM10.7629 3.70231L11.6079 4.54627C10.0089 6.35828 9.16101 8.71183 9.23706 11.1273C9.31311 13.5427 10.3074 15.8383 12.0172 17.5461C13.727 19.2539 16.0238 20.2455 18.4393 20.3187C20.8548 20.3919 23.2074 19.5413 25.0175 17.9402L25.8625 18.7842C21.6735 22.5404 15.208 22.4085 11.1795 18.3846C7.15103 14.3607 7.01142 7.89557 10.7629 3.70231ZM18.7392 22.6926C19.1357 22.6923 19.5315 22.6723 19.9267 22.6325L19.9274 23.885L18.7399 23.8857L18.7392 22.6926ZM15.7719 25.0749L22.8969 25.0707C23.2652 25.0709 23.6243 25.1851 23.9252 25.3975C24.226 25.6099 24.4537 25.9102 24.5771 26.2572L14.0931 26.2634C14.2161 25.9163 14.4434 25.6157 14.744 25.4029C15.0446 25.1901 15.4036 25.0755 15.7719 25.0749ZM16.8777 27.4492L19.7009 27.4476C19.4642 28.0117 19.3425 28.6173 19.3429 29.229C19.3432 29.8408 19.4657 30.4463 19.703 31.0101L16.8798 31.0117C16.5486 30.4767 16.373 29.86 16.3726 29.2308C16.3723 28.6016 16.5472 27.9846 16.8777 27.4492ZM5.00274 27.4562L7.23212 27.4549C6.99548 28.019 6.87378 28.6246 6.87414 29.2364C6.8745 29.8481 6.99691 30.4536 7.23421 31.0174L5.00453 31.0187C4.67337 30.4837 4.49775 29.867 4.49739 29.2378C4.49702 28.6085 4.6719 27.9916 5.00244 27.4562L5.00274 27.4562ZM7.38053 32.2048L9.61021 32.2035C9.37357 32.7676 9.25186 33.3733 9.25222 33.985C9.25258 34.5967 9.375 35.2022 9.6123 35.766L7.38232 35.7673C7.05115 35.2323 6.87554 34.6156 6.87517 33.9864C6.8748 33.3571 7.04969 32.7402 7.38023 32.2048L7.38053 32.2048ZM23.4139 35.7579C23.188 35.3948 23.0338 34.9918 22.9596 34.5707L33.4375 34.5645C33.4901 34.9729 33.5977 35.3723 33.7574 35.7518L23.4139 35.7579ZM33.4368 33.377L22.9589 33.3832C23.0326 32.962 23.1864 32.5588 23.4118 32.1954L33.7555 32.1893C33.5962 32.569 33.489 32.9686 33.4368 33.377ZM21.0361 31.0093C20.8102 30.6462 20.656 30.2432 20.5818 29.8221L31.0597 29.8159C31.1123 30.2243 31.2199 30.6237 31.3796 31.0032L21.0361 31.0093Z" fill="black"/>
</g>
<defs>
<clipPath id="clip0">
<rect width="38" height="38" fill="white" transform="translate(0.319824 0.146484) rotate(-0.0336302)"/>
</clipPath>
</defs>
</svg>
