<svg xmlns="http://www.w3.org/2000/svg" viewBox="0 0 218.64 228.19"><defs><style>.cls-1{fill:#fff;}</style></defs><g id="Layer_2" data-name="Layer 2"><g id="Layer_1-2" data-name="Layer 1"><path class="cls-1" d="M70.16,4.73a104.12,104.12,0,0,0-68.72,69,35.82,35.82,0,0,1,47,3.29A59.35,59.35,0,0,1,156,126.76l30.19,37.68A104.24,104.24,0,0,0,70.16,4.73Z"/><path class="cls-1" d="M131.23,155.42a59.39,59.39,0,0,1-84.18-26.66,35.77,35.77,0,0,1-47,.84c.47,1.88,1,3.75,1.58,5.62a104.27,104.27,0,0,0,157.89,55.44Z"/><rect class="cls-1" x="173.79" y="183.34" width="37.28" height="37.28" transform="matrix(0.78, -0.63, 0.63, 0.78, -84.04, 164.71)"/></g></g></svg>