<svg width="39" height="39" viewBox="0 0 39 39" fill="none" xmlns="http://www.w3.org/2000/svg">
<g clip-path="url(#clip0)">
<path d="M37.0694 9.22268L29.064 11.5148L21.4861 13.685C21.0082 13.8218 20.6789 14.2584 20.6792 14.7557L20.6882 30.1052C19.7881 29.5633 18.6527 29.2295 17.3479 29.2303C14.048 29.2322 11.7827 31.3852 11.7841 33.6867C11.7854 35.9646 14.0205 38.1385 17.3531 38.1366C20.6529 38.1346 22.9183 35.9816 22.9169 33.6802L22.9089 20.0469L29.068 18.2836L36.266 16.2227L36.2716 25.643C35.3714 25.101 34.236 24.7673 32.9312 24.768C29.6314 24.77 27.3661 26.923 27.3674 29.2244C27.3687 31.5023 29.6038 33.6762 32.9364 33.6743C36.2363 33.6723 38.5016 31.5193 38.5002 29.2179L38.4891 10.2921C38.4887 9.55064 37.7781 9.01965 37.0694 9.22268Z" fill="#FF641A"/>
<path d="M36.266 16.2228L36.2716 25.6431C35.3714 25.1011 34.236 24.7674 32.9312 24.7681C29.6314 24.7701 27.3661 26.9231 27.3674 29.2245C27.3688 31.5024 29.6038 33.6763 32.9364 33.6744C36.2363 33.6724 38.5016 31.5194 38.5002 29.218L38.4891 10.2922C38.4887 9.55075 37.7781 9.01976 37.0694 9.2228L29.0641 11.5149L29.068 18.2837L36.266 16.2228Z" fill="#DD3400"/>
<path d="M24.976 1.24539C24.9756 0.630858 24.4766 0.132401 23.8621 0.132762L17.1824 0.136683C12.8851 0.139205 9.39146 3.63696 9.39398 7.93422L9.39594 11.2741L9.39915 16.7527C8.49901 16.2107 7.36356 15.8768 6.0588 15.8776C2.75903 15.8795 0.493653 18.0325 0.495004 20.334C0.49634 22.6118 2.7316 24.7858 6.06402 24.7838C9.36379 24.7819 11.6292 22.629 11.6278 20.3274L11.6225 11.2728L14.9623 11.2708C17.6505 11.2692 19.899 9.35232 20.4141 6.81447L19.3937 5.85023L23.8617 4.58589C24.5618 3.65477 24.9767 2.49746 24.976 1.24539Z" fill="#FFDF8E"/>
<path d="M12.0614 20.3273L12.0561 11.2726L15.3959 11.2706C18.0841 11.2691 20.3326 9.35217 20.8477 6.81432L19.8273 5.85008L24.2953 4.58574C24.9954 3.65462 25.4103 2.49731 25.4096 1.24524C25.4092 0.630708 24.9102 0.132251 24.2957 0.132611L17.616 0.136532C13.3187 0.139054 9.82505 3.63681 9.82757 7.93407L9.82953 11.2739L9.83275 16.7525C8.9326 16.2105 7.79716 15.8767 6.49239 15.8774L6.49762 24.7837C9.79738 24.7818 12.0628 22.6288 12.0614 20.3273Z" fill="#FFB64C"/>
<path d="M23.8617 4.58592C23.0408 5.6789 21.827 6.46114 20.4326 6.72098C20.4267 6.75215 20.4207 6.78333 20.4141 6.8145L14.9597 6.81771C14.3452 6.81807 13.8462 6.31961 13.8458 5.70508C13.8454 5.09055 14.3439 4.5915 14.9584 4.59114L23.8617 4.58592Z" fill="#FF9100"/>
</g>
<defs>
<clipPath id="clip0">
<rect width="38" height="38" fill="white" transform="translate(0.483154 0.146484) rotate(-0.0336302)"/>
</clipPath>
</defs>
</svg>
