<svg xmlns="http://www.w3.org/2000/svg" viewBox="0 0 221.93 218.39"><g id="Layer_2" data-name="Layer 2"><g id="Layer_1-2" data-name="Layer 1"><path d="M64,7A104.12,104.12,0,0,0,0,80.35a35.81,35.81,0,0,1,47.06.2A59.35,59.35,0,0,1,157.75,123.1l32.6,35.62A104.24,104.24,0,0,0,64,7Z"/><path d="M134.87,153.33a59.38,59.38,0,0,1-85.75-21.08,35.75,35.75,0,0,1-46.89,3.93c.6,1.85,1.24,3.68,1.94,5.51a104.31,104.31,0,0,0,161.2,45Z"/><rect x="180.68" y="177.14" width="37.28" height="37.28" rx="9.02" transform="translate(-79.9 185.95) rotate(-42.47)"/></g></g></svg>