<svg xmlns="http://www.w3.org/2000/svg" viewBox="0 0 447.77 172.41"><defs><style>.cls-1,.cls-2{fill:#fff;}.cls-2{font-size:100.33px;font-family:ZeroesOne-Regular, "Zeroes 1";}</style></defs><g id="Layer_2" data-name="Layer 2"><g id="Layer_1-2" data-name="Layer 1"><path class="cls-1" d="M50.56,5.51A82.2,82.2,0,0,0,0,63.43a28.25,28.25,0,0,1,37.15.16,46.85,46.85,0,0,1,87.38,33.59l25.74,28.12A82.29,82.29,0,0,0,50.56,5.51Z"/><path class="cls-1" d="M106.47,121.05A46.9,46.9,0,0,1,38.78,104.4a28.22,28.22,0,0,1-37,3.11q.7,2.17,1.53,4.35a82.33,82.33,0,0,0,127.26,35.48Z"/><rect class="cls-1" x="142.63" y="139.84" width="29.43" height="29.43" rx="7.12" transform="translate(-63.07 146.8) rotate(-42.47)"/><text class="cls-2" transform="translate(174.67 144.02)">UESA</text></g></g></svg>