<svg width="793" height="852" viewBox="0 0 793 852" fill="none" xmlns="http://www.w3.org/2000/svg">
<path d="M366.54 728.767C535.655 728.767 672.75 724.006 672.75 718.134C672.75 712.261 535.655 707.501 366.54 707.501C197.424 707.501 60.3296 712.261 60.3296 718.134C60.3296 724.006 197.424 728.767 366.54 728.767Z" fill="#9169DB"/>
<path d="M227.028 676.897L208.736 647.827L195.427 657.437L214.99 685.587L227.028 676.897Z" fill="#E1838E"/>
<path d="M227.028 676.897L212.114 687.666C212.114 687.666 194.123 699.373 200.761 715.186L235.973 689.779L227.028 676.897Z" fill="#1C1C1A"/>
<path d="M161.803 458.87L132.025 576.753C131.36 579.398 131.269 582.159 131.76 584.843C132.251 587.528 133.312 590.07 134.868 592.293L194.324 677.255L224.52 647.81L180.864 586.176L183.69 459.092L161.803 458.87Z" fill="#4D52D8"/>
<path d="M182.118 699.117L183.656 664.628L167.338 664.645L167.371 699.134L182.118 699.117Z" fill="#E1838E"/>
<path d="M182.118 699.117H163.843C163.843 699.117 142.525 698.112 138.997 714.913H182.135L182.118 699.117Z" fill="#1C1C1A"/>
<path d="M169.127 458.87L161.352 677.289H194.324L209.372 551.193C209.372 551.193 233.883 483.033 208.653 459.313L169.127 458.87Z" fill="#4D52D8"/>
<path d="M162.957 632.44L168.19 485.027" stroke="#1C1C1A" stroke-width="0.91" stroke-miterlimit="10"/>
<path d="M201.664 615.519L194.324 677.255" stroke="#1C1C1A" stroke-width="0.91" stroke-miterlimit="10"/>
<path d="M168.157 456.331C168.157 456.331 160.767 460.745 101.728 421.024L107.982 411.38L154.296 434.418L203.286 451.935L168.157 456.331Z" fill="#E1838E"/>
<path d="M97.565 420.155C95.524 419.109 93.8333 417.469 92.7066 415.443C91.58 413.417 91.068 411.097 91.2354 408.774C91.4028 406.452 92.2421 404.232 93.6472 402.396C95.0522 400.56 96.96 399.19 99.1292 398.458C101.298 397.727 103.632 397.667 105.834 398.287C108.036 398.907 110.009 400.179 111.502 401.941C112.996 403.704 113.943 405.878 114.224 408.189C114.505 410.5 114.107 412.843 113.081 414.924C112.401 416.308 111.46 417.541 110.312 418.553C109.163 419.565 107.83 420.337 106.389 420.823C104.947 421.309 103.426 421.5 101.912 421.385C100.397 421.271 98.9204 420.853 97.565 420.155Z" fill="#E1838E"/>
<path d="M82.9183 355.25L81.7813 346.542C80.7195 339.708 81.4641 332.709 83.9382 326.265C86.3793 320.289 91.3953 313.593 98.9862 306.175C106.298 299.188 110.997 293.684 113.081 289.663C115.169 285.733 115.96 281.222 115.338 276.798C115.161 274.521 114.421 272.326 113.187 270.42C111.954 268.513 110.266 266.955 108.283 265.892C104.236 263.745 98.9193 263.098 92.2982 264.001C80.7614 265.568 68.11 271.192 54.3438 280.87L38.4097 256.827C53.7696 244.899 71.9181 237.264 91.0609 234.675C106.911 232.528 120.014 234.703 130.37 241.201C140.725 247.699 146.744 257.412 148.427 270.34C149.663 278.166 148.677 286.189 145.585 293.463C142.553 300.279 136.166 308.322 126.424 317.591C119.736 324.169 115.617 329.037 114.068 332.195C112.415 335.889 111.908 340.008 112.613 344.003L113.533 351.041L82.9183 355.25ZM84.4733 395.958C83.6261 389.381 84.7073 384.167 87.7169 380.316C90.7265 376.465 95.5419 374.085 102.163 373.176C108.55 372.324 113.717 373.363 117.662 376.345C121.608 379.327 124.016 384.013 124.852 390.454C125.655 396.634 124.54 401.746 121.508 405.79C118.476 409.835 113.8 412.3 107.48 413.186C101.004 414.072 95.776 413.01 91.7966 409.999C87.8173 406.989 85.3761 402.309 84.4733 395.958Z" fill="#4D52D7"/>
<path d="M210.074 460.779C210.074 459.722 207.482 385.564 207.482 385.564L194.106 380.094H177.637C177.637 380.094 159.479 381.662 158.125 399.281L161.837 458.921L210.074 460.779Z" fill="#E28F36"/>
<path d="M161.736 388.819C161.736 388.819 144.013 410.971 164.311 426.187C184.609 441.404 181.6 417.258 181.6 417.258L161.736 388.819Z" fill="#E28F36"/>
<path d="M220.474 404.121C220.474 404.121 228.834 441.609 220.474 513.177L209.204 511.848L208.519 459.262L201.831 406.796L220.474 404.121Z" fill="#E1838E"/>
<path d="M221.678 517.385C221.678 519.714 221 521.989 219.732 523.925C218.463 525.861 216.659 527.37 214.549 528.262C212.439 529.154 210.117 529.388 207.876 528.935C205.636 528.482 203.577 527.362 201.96 525.717C200.344 524.072 199.242 521.976 198.795 519.693C198.347 517.41 198.573 515.043 199.445 512.891C200.317 510.739 201.795 508.899 203.693 507.604C205.591 506.308 207.823 505.614 210.107 505.611C211.626 505.609 213.13 505.912 214.534 506.502C215.938 507.093 217.213 507.96 218.288 509.054C219.362 510.147 220.215 511.446 220.797 512.876C221.378 514.305 221.678 515.838 221.678 517.385Z" fill="#E1838E"/>
<path d="M194.073 380.094C194.073 380.094 223.249 375.596 224.303 408.824L201.346 418.622L194.073 380.094Z" fill="#E28F36"/>
<path d="M201.898 410.306L208.168 460.779" stroke="#1C1C1A" stroke-width="0.91" stroke-miterlimit="10"/>
<path d="M200.661 338.5C198.487 351.416 188.957 365.661 176.283 363.463C170.194 362.401 164.769 358.918 161.201 353.779C157.633 348.64 156.214 342.268 157.255 336.063C159.429 323.147 168.959 316.024 181.633 318.239C194.307 320.454 202.784 325.583 200.661 338.5Z" fill="#040901"/>
<path d="M183.924 349.627L194.073 380.094L178.891 389.057L169.043 355.165L183.924 349.627Z" fill="#E1838E"/>
<path d="M172.053 319.551C172.053 319.551 159.579 316.637 156.72 326.452C154.363 334.461 166.217 338.619 166.217 338.619L172.053 319.551Z" fill="#040901"/>
<path d="M171.317 323.59C160.265 321.664 158.627 330.014 158.627 330.014L153.427 349.32C152.557 355.591 153.025 361.248 157.791 364.895C160.698 367.007 164.284 367.914 167.823 367.434L172.37 366.888C176.032 366.462 178.323 363.071 179.058 359.578L180.546 340.289C180.546 340.289 182.386 325.464 171.317 323.59Z" fill="#E1838E"/>
<path d="M156.62 341.431L150.551 346.679C150.179 347.041 149.958 347.534 149.934 348.057C149.909 348.581 150.082 349.093 150.417 349.49L154.045 352.234L156.62 341.431Z" fill="#E1838E"/>
<path d="M172.42 366.803C175.408 365.482 177.826 363.103 179.225 360.106C178.602 364.434 176.727 368.473 173.842 371.711L172.42 366.803Z" fill="#040901"/>
<path d="M161.068 323.147C161.068 323.147 170.815 326.06 173.792 343.152L186.599 343.578C186.599 343.578 186.599 323.641 183.004 322.874C179.409 322.107 163.659 318.358 161.068 323.147Z" fill="#040901"/>
<path d="M173.006 336.796L174.561 349.508L179.359 340.187L173.006 336.796Z" fill="#040901"/>
<path d="M178.406 352.609C178.406 352.609 181.917 362.407 188.171 364.537L191.615 350.905L178.406 352.609Z" fill="#040901"/>
<path d="M174.36 346.713C173.977 347.908 173.951 349.192 174.284 350.403C174.618 351.613 175.296 352.696 176.234 353.513C177.171 354.331 178.325 354.847 179.55 354.995C180.775 355.144 182.016 354.92 183.116 354.35C184.215 353.78 185.124 352.89 185.728 351.794C186.332 350.697 186.602 349.443 186.506 348.189C186.41 346.936 185.952 345.74 185.188 344.752C184.425 343.764 183.391 343.029 182.218 342.64C180.646 342.124 178.937 342.262 177.465 343.025C175.993 343.788 174.876 345.114 174.36 346.713Z" fill="#E1838E"/>
<path d="M161.686 323.402C161.686 323.402 161.068 334.631 174.527 340.766C184.894 345.486 182.787 329.997 182.787 329.997L161.686 323.402Z" fill="#040901"/>
<path d="M226.961 322.993C226.079 326.939 224.067 330.528 221.181 333.308C218.296 336.088 214.666 337.932 210.751 338.608C206.836 339.284 202.812 338.761 199.189 337.105C195.566 335.45 192.507 332.736 190.398 329.307C188.29 325.878 187.227 321.888 187.344 317.844C187.461 313.799 188.754 309.88 191.057 306.584C193.361 303.288 196.572 300.763 200.285 299.328C203.997 297.893 208.044 297.613 211.913 298.524C217.089 299.742 221.579 303.001 224.4 307.588C227.221 312.175 228.142 317.715 226.961 322.993Z" fill="#040901"/>
<path d="M194.073 380.094C194.073 380.094 185.579 398.054 176.283 393.198C166.987 388.342 180.68 377.163 180.68 377.163L194.073 380.094Z" fill="#E1838E"/>
<path d="M346.208 697.924L348.164 663.435L364.483 663.418L360.955 697.907L346.208 697.924Z" fill="#E1838E"/>
<path d="M346.208 697.924H364.483C364.483 697.924 385.801 696.868 389.362 713.686H345.272L346.208 697.924Z" fill="#1C1C1A"/>
<path d="M381.454 467.612L370.419 682.231L337.079 682.248L343.6 467.646L381.454 467.612Z" fill="#2D2D84"/>
<path d="M289.628 697.976L295.129 663.469H311.447L304.375 697.959L289.628 697.976Z" fill="#E1838E"/>
<path d="M289.628 697.975H307.903C307.903 697.975 329.221 696.919 332.782 713.72H287.872L289.628 697.975Z" fill="#1C1C1A"/>
<path d="M313.019 469.043C313.019 469.043 280.917 681.753 282.773 682.128C284.628 682.503 318.503 682.128 318.503 682.128L361.624 467.987L313.019 469.043Z" fill="#2D2D84"/>
<path d="M340.457 574.93L355.22 502.936" stroke="#1C1C1A" stroke-width="0.91" stroke-miterlimit="10"/>
<path d="M372.86 380.81C372.039 377.213 370.093 373.985 367.315 371.612C364.538 369.239 361.079 367.851 357.461 367.655C352.817 367.378 348.163 367.338 343.516 367.536C343.516 367.536 325.843 368.32 310.293 384.133L313.019 469.043L381.454 467.612L372.86 380.81Z" fill="#FDFBF6"/>
<path d="M386.319 497.568C383.975 498.821 381.319 499.337 378.687 499.05C376.054 498.764 373.565 497.688 371.533 495.958C369.501 494.229 368.019 491.924 367.273 489.336C366.527 486.747 366.552 483.991 367.344 481.417C368.136 478.843 369.66 476.566 371.722 474.875C373.784 473.183 376.293 472.154 378.93 471.916C381.567 471.679 384.213 472.244 386.535 473.54C388.856 474.837 390.748 476.806 391.971 479.199C393.606 482.4 393.93 486.13 392.871 489.574C391.811 493.017 389.455 495.892 386.319 497.568Z" fill="#E1838E"/>
<path d="M378.695 475.348L359.835 467.032L354.903 479.846L374.197 489.508L378.695 475.348Z" fill="#E1838E"/>
<path d="M339.587 384.831L322.031 441.063L370.736 469.759L361.356 487.94L299.375 457.78C296.564 456.405 294.332 454.047 293.086 451.134C291.84 448.222 291.663 444.95 292.587 441.915C292.587 441.915 297.269 402.263 310.177 384.15C314.206 378.475 339.587 384.831 339.587 384.831Z" fill="#FDFBF6"/>
<path d="M330.04 415.418L322.031 441.063L370.736 469.759" stroke="#1C1C1A" stroke-width="0.91" stroke-miterlimit="10"/>
<path d="M446.428 317.455C448.327 319.336 449.636 321.748 450.188 324.387C450.741 327.026 450.512 329.773 449.532 332.28C448.552 334.787 446.863 336.94 444.681 338.468C442.499 339.996 439.92 340.83 437.273 340.863C434.625 340.897 432.027 340.129 429.808 338.656C427.589 337.184 425.849 335.073 424.808 332.592C423.767 330.111 423.472 327.371 423.96 324.719C424.448 322.066 425.698 319.622 427.551 317.694C430.027 315.118 433.403 313.646 436.941 313.602C440.479 313.557 443.89 314.942 446.428 317.455Z" fill="#E1838E"/>
<path d="M428.119 331.735L426.247 352.592L439.723 353.376L442.733 331.684L428.119 331.735Z" fill="#E1838E"/>
<path d="M361.022 368.286L417.87 389.33L424.107 340.391L443.368 343.884L436.212 412.368C434.878 415.24 432.575 417.527 429.722 418.81C426.87 420.093 423.66 420.286 420.679 419.354L371.071 401.684L361.022 368.286Z" fill="#FDFBF6"/>
<path d="M404.561 275.469L402.404 266.676C400.532 259.79 400.497 252.519 402.304 245.615C404.11 239.174 408.473 231.704 415.396 223.207C422.084 215.176 426.28 208.967 427.986 204.582C429.668 200.296 429.967 195.575 428.838 191.104C428.394 188.789 427.382 186.627 425.897 184.818C424.412 183.01 422.502 181.614 420.345 180.76C415.953 179.022 410.413 179.022 403.725 180.76C392.054 183.748 379.709 191.024 366.69 202.589L347.596 179.789C362 165.728 379.757 155.742 399.11 150.821C415.128 146.732 428.822 147.407 440.191 152.849C451.561 158.29 458.851 167.549 462.061 180.624C464.221 188.513 464.122 196.867 461.777 204.702C459.458 212.029 453.824 221.043 444.873 231.744C438.787 239.276 435.114 244.757 433.854 248.188C432.585 252.174 432.538 256.46 433.721 260.474L435.476 267.613L404.561 275.469ZM410.814 317.08C409.176 310.412 409.688 304.931 412.353 300.637C415.017 296.343 419.693 293.344 426.381 291.64C432.835 289.981 438.257 290.447 442.649 293.037C447.041 295.627 450.034 300.171 451.628 306.669C453.166 312.917 452.609 318.302 449.956 322.823C447.303 327.344 442.766 330.417 436.346 332.042C429.825 333.746 424.324 333.234 419.893 330.627C415.462 328.02 412.386 323.487 410.814 317.08Z" fill="#4D52D7"/>
<path d="M337.447 337.699L332.514 368.166C332.292 369.64 332.36 371.144 332.713 372.591C333.067 374.038 333.699 375.399 334.574 376.595C335.448 377.79 336.547 378.797 337.807 379.556C339.067 380.314 340.462 380.81 341.911 381.014C343.361 381.223 344.837 381.135 346.253 380.756C347.669 380.377 348.997 379.714 350.159 378.807C351.322 377.9 352.295 376.766 353.024 375.472C353.752 374.177 354.22 372.748 354.401 371.268L357.745 346.917L337.447 337.699Z" fill="#E1838E"/>
<path d="M363.48 317.762L369.115 338.585C372.459 347.105 366.623 359.288 357.661 358.522C353.773 358.027 350.2 356.088 347.627 353.076C345.054 350.064 343.662 346.19 343.717 342.197L344.051 318.87C344.703 317.319 358.681 309.549 363.48 317.762Z" fill="#E1838E"/>
<path d="M365.52 329.076L371.505 334.955C371.891 335.325 372.123 335.831 372.154 336.37C372.185 336.908 372.013 337.439 371.673 337.852L369.349 339.658L365.52 329.076Z" fill="#E1838E"/>
<path d="M339.152 337.392C339.152 337.392 344.988 348.86 335.139 352.012L325.977 342.504C324.039 340.072 322.609 337.263 321.775 334.247C320.942 331.232 320.721 328.075 321.128 324.97C321.914 320.267 324.271 317.2 329.856 312.599C343.115 301.676 353.498 306.328 355.621 313.042L347.161 329.843L339.152 337.392Z" fill="#040901"/>
<path d="M349.385 315.853C349.385 315.853 354.903 326.912 345.289 331.462L349.385 315.853Z" fill="#040901"/>
<path d="M347.178 326.316L349.234 334.512L343.483 336.097L343.6 327.918L347.178 326.316Z" fill="#040901"/>
<path d="M356.19 358.266C356.19 358.266 348.616 355.846 346.158 350.7C347.561 355.896 350.92 360.318 355.504 363.003L356.19 358.266Z" fill="#040901"/>
<path d="M344.469 334.376C345.123 335.545 345.391 336.898 345.232 338.234C345.073 339.57 344.497 340.819 343.589 341.795C342.68 342.772 341.487 343.425 340.187 343.657C338.886 343.89 337.546 343.69 336.366 343.086C335.185 342.483 334.227 341.509 333.631 340.308C333.036 339.106 332.836 337.742 333.06 336.416C333.284 335.089 333.922 333.872 334.877 332.943C335.833 332.014 337.056 331.423 338.367 331.258C339.573 331.103 340.796 331.317 341.883 331.872C342.969 332.427 343.87 333.299 344.469 334.376Z" fill="#E1838E"/>
<path d="M390.048 311.577C389.909 311.213 389.641 310.915 389.298 310.742C388.955 310.569 388.56 310.532 388.192 310.639L364.366 317.455C361.524 310.98 354 300.927 339.286 303.96C320.894 307.76 318.72 321.715 319.874 330.32C319.988 331.237 320.15 332.148 320.359 333.047L389.028 313.638C389.233 313.579 389.424 313.477 389.588 313.339C389.752 313.201 389.886 313.03 389.982 312.836C390.078 312.642 390.133 312.43 390.145 312.213C390.156 311.996 390.123 311.78 390.048 311.577Z" fill="#5945F3"/>
<path d="M511.201 353.171C511.201 353.171 464.385 354.262 485.854 389.091C493.779 401.923 491.873 409.539 488.395 413.885C488.192 414.161 488.075 414.494 488.062 414.84C488.048 415.185 488.138 415.527 488.32 415.819C488.501 416.111 488.765 416.34 489.078 416.475C489.39 416.611 489.735 416.646 490.067 416.577C501.27 412.641 517.22 402.74 502.172 380.179C502.172 380.179 491.104 365.133 513.275 355.863L511.201 353.171Z" fill="#040901"/>
<path d="M509.83 346.713C509.496 347.054 501.27 350.325 505.416 357.448C509.563 364.571 518.708 359.97 518.708 359.97L509.83 346.713Z" fill="#E28F36"/>
<path d="M508.258 351.314C509.688 354.146 511.652 356.664 514.037 358.722C516.422 360.781 519.181 362.341 522.158 363.313C525.134 364.284 528.269 364.649 531.384 364.385C534.499 364.121 537.532 363.235 540.311 361.776C552.015 355.625 555.191 341.737 549.172 329.826C543.153 317.915 530.195 312.497 518.508 318.648C515.728 320.105 513.258 322.106 511.239 324.537C509.219 326.968 507.689 329.781 506.737 332.815C505.785 335.849 505.43 339.045 505.691 342.219C505.952 345.393 506.824 348.484 508.258 351.314Z" fill="#040901"/>
<path d="M525.597 347.395L545.661 357.175L548.303 372.068C548.303 372.068 550.393 375.988 546.18 379.907C541.966 383.826 533.539 385.871 531.366 380.963L525.597 347.395Z" fill="#E1838E"/>
<path d="M536.431 347.821L529.643 342.3C529.643 342.3 529.844 368.848 547.299 366.036L545.728 357.175L536.431 347.821Z" fill="#040901"/>
<path d="M548.453 360.72C556.261 356.613 560.157 348.468 556.195 340.527L545.962 320.352C545.113 318.686 543.652 317.431 541.898 316.859C540.143 316.288 538.238 316.447 536.599 317.302L520.581 325.703C518.947 326.568 517.715 328.057 517.154 329.845C516.593 331.633 516.749 333.574 517.588 335.245L526.701 353.273C530.713 361.129 541.882 364.179 548.453 360.72Z" fill="#E1838E"/>
<path d="M551.045 333.524L557.733 335.449C558.078 335.635 558.349 335.937 558.499 336.304C558.648 336.671 558.667 337.08 558.552 337.46L555.994 341.874L551.045 333.524Z" fill="#E1838E"/>
<path d="M537.318 316.825C537.318 316.825 544.608 333.251 525.614 344.549C525.614 344.549 513.542 345.742 513.074 338.244C512.606 330.746 515.465 322.993 521.2 321.068C526.935 319.142 537.318 316.825 537.318 316.825Z" fill="#040901"/>
<path d="M537.736 318C537.736 318 543.103 318.29 548.587 325.481C548.587 325.481 552.416 318.188 542.769 313.962C533.121 309.736 530.145 322.891 530.145 322.891L537.736 318Z" fill="#040901"/>
<path d="M518.207 350.7C518.768 351.817 519.643 352.739 520.719 353.349C521.795 353.959 523.024 354.23 524.251 354.127C525.478 354.024 526.648 353.553 527.612 352.772C528.576 351.991 529.291 350.936 529.666 349.741C530.041 348.546 530.06 347.264 529.72 346.058C529.38 344.852 528.696 343.776 527.755 342.967C526.815 342.157 525.659 341.65 524.436 341.51C523.212 341.37 521.975 341.603 520.882 342.18C519.421 342.951 518.32 344.281 517.818 345.877C517.317 347.474 517.457 349.208 518.207 350.7Z" fill="#E1838E"/>
<path d="M542.384 697.924L544.34 663.435L560.659 663.418L557.148 697.907L542.384 697.924Z" fill="#E1838E"/>
<path d="M542.384 697.924H560.592C560.592 697.924 581.91 696.868 585.471 713.686H541.381L542.384 697.924Z" fill="#1C1C1A"/>
<path d="M564.488 457.558L573.583 585.273L570.005 681.549H535.111L537.251 572.714L527.486 459.467L564.488 457.558Z" fill="#E28F36"/>
<path d="M490.535 697.924L499.664 663.469L515.983 663.452L505.282 697.907L490.535 697.924Z" fill="#E1838E"/>
<path d="M490.535 697.924H508.76C508.76 697.924 530.078 696.868 533.639 713.686H486.823L490.535 697.924Z" fill="#1C1C1A"/>
<path d="M521.066 459.467C521.066 459.467 504.179 474.7 506.018 520.044L507.172 580.962L476.507 680.629L514.579 683.168L545.293 583.433L558.184 453.264L521.066 459.467Z" fill="#E28F36"/>
<path d="M536.582 611.736L545.31 580.195L553.285 499.562" stroke="#1C1C1A" stroke-width="0.91" stroke-miterlimit="10"/>
<path d="M633.826 303.942C633.173 303.533 631.033 294.519 641.416 296.462C651.799 298.404 653.906 293.514 658.136 296.547C662.366 299.58 661.831 309.515 640.731 307.112L633.826 303.942Z" fill="#E1838E"/>
<path d="M633.207 301.063L628.977 311.116L637.571 315.462L642.069 302.375L633.207 301.063Z" fill="#E1838E"/>
<path d="M548.888 375.033L603.228 357.244L624.629 307.572L644.576 313.366L624.512 366.496C623.479 368.974 621.824 371.131 619.714 372.75C600.456 386.932 578.181 396.274 554.707 400.014C553.006 400.282 551.27 400.191 549.606 399.748C547.942 399.305 546.384 398.518 545.03 397.437C543.676 396.356 542.554 395.003 541.734 393.462C540.913 391.921 540.412 390.224 540.26 388.478C539.985 385.571 540.69 382.656 542.258 380.212C543.826 377.768 546.165 375.942 548.888 375.033Z" fill="#2D2D84"/>
<path d="M519.494 459.466C519.494 458.427 510.181 399.043 510.181 399.043L537.585 376.891H554.071C554.071 376.891 572.212 378.458 573.583 396.078L564.488 457.422L519.494 459.466Z" fill="#2D2D84"/>
<path d="M569.922 385.683C569.922 385.683 587.645 407.835 567.347 423.052C547.049 438.269 550.058 414.072 550.058 414.072L569.922 385.683Z" fill="#2D2D84"/>
<path d="M591.457 297.195C590.738 296.956 586.659 288.675 597.209 288.181C607.759 287.686 608.712 282.438 613.511 284.432C618.309 286.425 619.981 296.206 598.898 298.711L591.457 297.195Z" fill="#E1838E"/>
<path d="M590.22 294.536L588.331 305.323L597.66 307.572L599.149 293.787L590.22 294.536Z" fill="#E1838E"/>
<path d="M516.685 384.422L567.531 357.993L583.816 301.284L604.415 303.755L589.919 363.668C589.286 366.282 587.988 368.679 586.157 370.62C569.369 387.748 548.848 400.593 526.266 408.108C524.629 408.652 522.9 408.847 521.186 408.682C519.472 408.517 517.809 407.995 516.301 407.149C514.793 406.302 513.472 405.149 512.419 403.76C511.367 402.372 510.605 400.778 510.181 399.077C509.467 396.245 509.723 393.249 510.905 390.584C512.088 387.92 514.127 385.746 516.685 384.422Z" fill="#2D2D84"/>
<path d="M590.354 361.861L586.692 372.614C586.244 373.939 585.326 375.046 584.117 375.715L543.387 400.099" stroke="#1C1C1A" stroke-width="0.91" stroke-miterlimit="10"/>
<path d="M572.668 250.331L581.028 247.622C587.515 245.319 594.487 244.819 601.226 246.173C607.524 247.57 614.97 251.439 623.564 257.777C631.69 263.946 637.91 267.734 642.224 269.143C646.444 270.548 650.994 270.548 655.215 269.143C657.408 268.558 659.42 267.415 661.061 265.82C662.702 264.225 663.918 262.232 664.595 260.027C665.988 255.483 665.648 249.962 663.575 243.464C659.986 232.036 652.222 220.204 640.284 207.969L660.916 187.521C675.304 200.963 686.006 217.995 691.966 236.938C696.892 252.637 697.121 266.326 692.651 278.004C688.181 289.682 679.766 297.537 667.404 301.57C659.975 304.22 651.958 304.652 644.297 302.814C637.107 300.962 628.101 295.924 617.277 287.7C609.653 282.133 604.158 278.828 600.791 277.782C596.885 276.761 592.767 276.981 588.987 278.413L582.299 280.611L572.668 250.331ZM533.159 259.209C539.434 257.164 544.718 257.329 549.009 259.703C553.301 262.077 556.483 266.542 558.557 273.096C560.541 279.413 560.435 284.848 558.239 289.404C556.049 293.936 551.869 297.208 545.749 299.219C539.63 301.229 534.63 300.923 530.133 298.52C525.635 296.117 522.391 291.806 520.418 285.57C518.445 279.333 518.512 273.642 520.736 269.075C522.96 264.508 527.09 261.185 533.159 259.209Z" fill="#4D52D7"/>
<path d="M231.71 223.224L229.202 213.528C227.035 205.944 226.902 197.906 228.817 190.252C230.723 183.106 235.421 174.785 242.912 165.288C250.224 156.325 254.778 149.412 256.572 144.55C258.373 139.788 258.636 134.565 257.325 129.64C256.819 127.105 255.693 124.741 254.05 122.769C252.407 120.796 250.301 119.28 247.928 118.36C243.046 116.508 236.915 116.565 229.536 118.53C216.695 121.938 203.157 130.152 188.923 143.17L167.455 118.258C183.187 102.536 202.672 91.271 223.985 85.5749C241.619 80.8151 256.756 81.3831 269.396 87.2789C282.037 93.1748 290.218 103.274 293.941 117.576C296.429 126.261 296.429 135.49 293.941 144.175C291.467 152.309 285.364 162.346 275.633 174.285C269.012 182.703 265.033 188.815 263.695 192.62C262.322 197.057 262.322 201.816 263.695 206.252L265.735 214.108L231.71 223.224ZM239.183 269.096C237.277 261.769 237.768 255.708 240.655 250.914C243.542 246.12 248.664 242.712 256.02 240.69C263.132 238.782 269.135 239.225 274.028 242.019C278.921 244.814 282.265 249.789 284.06 256.946C285.843 263.842 285.286 269.806 282.388 274.838C279.49 279.871 274.524 283.324 267.49 285.199C260.301 287.141 254.231 286.698 249.282 283.869C244.333 281.041 240.967 276.116 239.183 269.096Z" fill="#E3BB5E"/>
<path d="M539.96 180.624L541.197 175.103C542.063 170.723 544.06 166.659 546.982 163.328C549.774 160.244 554.289 157.347 560.492 154.587C564.864 152.944 568.972 150.646 572.681 147.771C574.806 145.862 576.281 143.314 576.894 140.495C577.29 139.076 577.326 137.578 576.998 136.142C576.671 134.705 575.991 133.377 575.021 132.282C572.502 129.74 569.272 128.055 565.775 127.459C558.43 125.755 549.512 126.261 539.023 128.976L534.726 110.76C546.667 107.066 559.348 106.619 571.51 109.465C581.542 111.805 588.994 116.122 593.865 122.415C596.23 125.439 597.869 128.985 598.65 132.769C599.431 136.553 599.333 140.471 598.363 144.21C597.371 149.228 594.999 153.855 591.524 157.552C588.18 160.96 582.545 164.368 574.603 167.776C570.789 169.27 567.199 171.301 563.936 173.808C562.121 175.665 560.907 178.043 560.458 180.624L559.455 185.106L539.96 180.624ZM531.917 205.639C532.176 203.881 532.792 202.197 533.724 200.695C534.657 199.193 535.887 197.905 537.335 196.914C540.514 195.22 544.218 194.866 547.651 195.926C551.139 196.509 554.259 198.476 556.329 201.396C557.916 204.523 558.365 208.123 557.593 211.555C556.822 214.987 554.88 218.029 552.115 220.14C550.592 221.023 548.91 221.586 547.169 221.793C545.429 222.001 543.665 221.85 541.983 221.35C540.231 221.069 538.551 220.437 537.041 219.489C535.532 218.541 534.222 217.297 533.188 215.829C532.285 214.304 531.705 212.604 531.486 210.837C531.267 209.07 531.414 207.276 531.917 205.571V205.639Z" fill="#E3BB5E"/>
<path d="M594.093 508.354L597.019 502.27C599.214 497.465 602.632 493.346 606.917 490.342C610.98 487.582 616.949 485.469 624.908 484.055C632.499 482.777 637.816 481.328 640.842 479.658C643.817 478.051 646.212 475.521 647.681 472.433C648.512 470.9 648.948 469.176 648.948 467.424C648.948 465.671 648.512 463.948 647.681 462.414C645.456 458.761 642.173 455.902 638.284 454.235C630.259 450.19 619.825 448.259 606.984 448.441V426.153C621.787 425.257 636.563 428.311 649.854 435.014C660.867 440.557 668.319 447.652 672.209 456.296C674.126 460.46 675.061 465.024 674.939 469.621C674.817 474.219 673.642 478.724 671.507 482.777C668.994 488.303 664.993 492.989 659.97 496.289C655.188 499.3 647.737 501.646 637.615 503.327C630.626 504.622 625.911 505.934 623.604 507.263C621.011 508.872 618.964 511.25 617.735 514.079L615.361 518.97L594.093 508.354ZM577.958 535.004C580.182 530.42 583.058 527.575 586.603 526.484C590.147 525.394 594.21 525.939 598.791 528.188C600.717 529.005 602.466 530.2 603.937 531.706C605.409 533.212 606.575 534.998 607.369 536.964C608.64 540.588 608.194 544.632 606.031 549.096C605.224 551.005 604.044 552.726 602.564 554.155C601.084 555.585 599.334 556.693 597.42 557.412C595.416 558.01 593.314 558.19 591.24 557.941C589.166 557.692 587.162 557.02 585.349 555.963C581.424 554.296 578.309 551.109 576.688 547.103C576.071 545.105 575.866 543 576.085 540.918C576.303 538.837 576.941 536.823 577.958 535.004Z" fill="#E3BB5E"/>
<path d="M41.7871 518.97L43.225 513.569C44.2522 509.292 46.3756 505.369 49.378 502.203C53.3615 498.623 58.0054 495.889 63.0382 494.16C67.4092 492.729 71.55 490.651 75.3274 487.992C77.4966 486.199 79.0439 483.744 79.7415 480.988C80.1948 479.61 80.2944 478.136 80.031 476.707C79.7676 475.279 79.1499 473.943 78.2367 472.826C75.8396 470.228 72.7169 468.443 69.2915 467.714C62.1354 465.76 53.3462 465.896 42.9241 468.123L39.3627 449.992C51.2646 446.852 63.7643 446.928 75.6284 450.214C85.4598 452.917 92.6382 457.461 97.1638 463.846C99.3856 466.917 100.871 470.475 101.501 474.236C102.131 477.997 101.888 481.856 100.792 485.504C99.6269 490.415 97.1093 494.884 93.5355 498.386C90.1246 501.624 84.4287 504.748 76.4477 507.758C72.6293 509.077 69.0064 510.923 65.68 513.245C63.8207 515.003 62.5317 517.298 61.9849 519.822L60.8145 524.202L41.7871 518.97ZM32.8753 543.286C33.2013 541.564 33.8749 539.929 34.8535 538.486C35.8321 537.043 37.0944 535.822 38.5601 534.903C41.7598 533.371 45.4201 533.176 48.7594 534.357C50.4564 534.703 52.0692 535.389 53.5043 536.374C54.9393 537.36 56.1681 538.626 57.1194 540.1C58.5566 543.235 58.8616 546.786 57.9806 550.128C57.0997 553.47 55.0893 556.388 52.304 558.367C50.7694 559.178 49.0901 559.666 47.3663 559.8C45.6426 559.935 43.91 559.714 42.272 559.151C40.5572 558.8 38.9278 558.106 37.4783 557.108C36.0289 556.111 34.7882 554.83 33.8284 553.34C32.9972 551.822 32.4835 550.145 32.3195 548.415C32.1554 546.685 32.3447 544.938 32.8753 543.286Z" fill="#E3BB5E"/>
<path d="M446.896 488.946L446.244 485.248C445.653 482.35 445.832 479.344 446.762 476.541C448.161 473.198 450.202 470.173 452.765 467.646C455.004 465.496 456.919 463.021 458.45 460.302C459.263 458.575 459.51 456.627 459.152 454.747C459.034 453.779 458.676 452.857 458.112 452.07C457.547 451.283 456.794 450.656 455.925 450.248C453.743 449.372 451.348 449.206 449.07 449.771C443.236 451.135 437.796 453.872 433.186 457.763L425.896 447.828C432.225 442.425 439.825 438.796 447.949 437.298C454.637 436.059 460.278 436.712 464.87 439.257C467.094 440.459 469.01 442.177 470.462 444.273C471.914 446.369 472.863 448.783 473.23 451.321C473.91 454.639 473.649 458.084 472.478 461.256C470.582 465.28 467.975 468.914 464.786 471.974C462.828 473.891 461.14 476.076 459.77 478.466C459.138 480.091 459.004 481.874 459.386 483.578L459.921 486.56L446.896 488.946ZM448.384 506.293C448.086 505.143 448.027 503.943 448.212 502.769C448.396 501.595 448.819 500.474 449.454 499.477C450.946 497.574 453.116 496.349 455.49 496.069C456.616 495.78 457.787 495.721 458.935 495.897C460.083 496.072 461.185 496.478 462.178 497.091C463.93 498.579 465.112 500.648 465.516 502.935C465.919 505.223 465.519 507.582 464.385 509.598C463.679 510.537 462.797 511.322 461.789 511.907C460.781 512.492 459.668 512.866 458.516 513.006C456.24 513.577 453.835 513.203 451.828 511.967C450.919 511.301 450.149 510.456 449.566 509.481C448.983 508.506 448.598 507.422 448.434 506.293H448.384Z" fill="#E3BB5E"/>
</svg>
