<svg width="39" height="39" viewBox="0 0 39 39" fill="none" xmlns="http://www.w3.org/2000/svg">
<g clip-path="url(#clip0)">
<path d="M12.3117 6.8533L2.24261 6.85921C1.6277 6.85957 1.12963 7.35823 1.12999 7.97314L1.1359 18.0423C1.13626 18.6569 1.63492 19.1552 2.24983 19.1549C1.63492 19.1552 1.13684 19.6539 1.1372 20.2688L1.14311 30.3376C1.14347 30.9525 1.64213 31.4506 2.25705 31.4503L12.3262 31.4443C12.9408 31.444 13.4391 30.9453 13.4388 30.3304C13.4382 29.349 13.4262 8.9473 13.4257 7.96593C13.4253 7.35101 12.9263 6.85294 12.3117 6.8533Z" fill="#60F375"/>
<path d="M12.3117 6.8533L11.1984 6.85395L11.2043 16.9231L1.13524 16.929L1.1359 18.0423C1.13626 18.6569 1.63492 19.1552 2.24983 19.1549L11.2057 19.1496L11.2116 29.2184L1.14246 29.2243L1.14311 30.3376C1.14347 30.9525 1.64213 31.4506 2.25705 31.4503L12.3262 31.4443C12.9408 31.444 13.4391 30.9453 13.4388 30.3304C13.4382 29.349 13.4262 8.9473 13.4257 7.96593C13.4253 7.35101 12.9263 6.85294 12.3117 6.8533Z" fill="#28D05B"/>
<path d="M36.91 19.1344L25.721 7.9586C25.7207 7.34369 25.222 6.84561 24.6071 6.84598L14.5383 6.85189C13.9234 6.85225 13.4253 7.35091 13.4256 7.96582L13.4388 30.3303C13.4391 30.9452 13.9378 31.4433 14.5527 31.4429L24.6218 31.437C25.2364 31.4367 25.7348 30.938 25.7344 30.3231C25.7348 30.938 26.2335 31.4361 26.8484 31.4357L36.9172 31.4298C37.5321 31.4294 38.0302 30.9308 38.0298 30.3159L38.0239 20.2471C38.0235 19.6321 37.5249 19.1341 36.91 19.1344Z" fill="#87F8F4"/>
<path d="M36.91 19.1344L35.7967 19.1351L35.8026 29.2039L25.7335 29.2098L25.721 7.9586C25.7207 7.34369 25.222 6.84561 24.6071 6.84598L23.4938 6.84663L23.4997 16.9157L13.4309 16.9216L13.4322 19.1482L23.5013 19.1423L23.5072 29.2111L13.4381 29.217L13.4388 30.3303C13.4391 30.9452 13.9378 31.4433 14.5527 31.4429L24.6218 31.437C25.2364 31.4367 25.7348 30.938 25.7344 30.3231C25.7348 30.938 26.2335 31.4361 26.8484 31.4357L36.9172 31.4298C37.5321 31.4294 38.0302 30.9308 38.0298 30.3159L38.0239 20.2471C38.0235 19.6321 37.5249 19.1341 36.91 19.1344Z" fill="#00E7EC"/>
<path d="M36.9099 19.1346L25.7276 19.1411L25.721 7.95874C25.7206 7.34383 26.219 6.84517 26.8336 6.84481L36.9027 6.8389C37.5176 6.83853 38.0163 7.33661 38.0167 7.95152L38.0226 18.0206C38.0229 18.6353 37.5249 19.1342 36.9099 19.1346Z" fill="#5C87BD"/>
<path d="M36.9027 6.8389L35.7894 6.83955L35.7954 16.9087L25.7262 16.9146L25.7276 19.1411L36.9099 19.1346C37.5249 19.1342 38.0229 18.6353 38.0226 18.0206L38.0167 7.95152C38.0163 7.33661 37.5176 6.83853 36.9027 6.8389Z" fill="#456EA2"/>
<path d="M38.5733 7.95113C38.5728 7.03035 37.8232 6.28165 36.9024 6.28219L27.7984 6.28753C27.4908 6.28771 27.2419 6.5369 27.2421 6.8445C27.2423 7.15181 27.4915 7.40099 27.7991 7.40081L36.9031 7.39547C37.2101 7.39529 37.4598 7.64476 37.46 7.95178L37.4659 18.0209C37.4661 18.3276 37.2166 18.5777 36.9096 18.5779L27.9535 18.5831C27.6471 18.5833 27.397 18.8333 27.3972 19.1401C27.3974 19.4471 27.6477 19.6966 27.9542 19.6964L27.9559 19.6964L36.9103 19.6911C37.2167 19.6915 37.4662 19.9407 37.4672 20.2475L37.4731 30.3166C37.4725 30.6224 37.2233 30.8725 36.9168 30.8735L26.8474 30.8794C26.5419 30.8787 26.2933 30.6304 26.2908 30.326C26.2908 30.3249 26.2908 30.324 26.2908 30.3228L26.2842 19.1407C26.2842 19.139 26.2839 19.1378 26.2839 19.1364L26.2773 7.95806C26.2771 7.51187 26.1032 7.09276 25.7876 6.77751C25.4719 6.46314 25.0526 6.28885 24.6064 6.28912L14.5382 6.29503C14.1228 6.29527 13.7315 6.44829 13.4255 6.72302C13.1296 6.45792 12.739 6.29637 12.3114 6.29662L2.24225 6.30253C1.32147 6.30307 0.572767 7.05266 0.573307 7.97343L0.578738 17.2258C0.578918 17.5334 0.828103 17.7823 1.13571 17.7822C1.44331 17.782 1.6922 17.5328 1.69202 17.2252L1.68659 7.97278C1.68641 7.66576 1.93588 7.41599 2.2429 7.41581L12.312 7.4099C12.619 7.40972 12.8688 7.6592 12.869 7.96622C12.869 7.96767 12.8693 7.96912 12.8693 7.97057L12.8755 18.592L2.24947 18.5982C1.32869 18.5987 0.579984 19.3483 0.580524 20.2691L0.586434 30.3379C0.586974 31.2587 1.33656 32.0074 2.25734 32.0069L11.5097 32.0014C11.8173 32.0012 12.0662 31.7521 12.0661 31.4445C12.0659 31.1371 11.8167 30.888 11.5091 30.8881L2.25668 30.8936C1.94966 30.8938 1.6999 30.6443 1.69972 30.3373L1.69381 20.2684C1.69362 19.9614 1.9431 19.7117 2.25012 19.7115L12.8759 19.7052L12.8821 30.3307C12.8826 31.2515 13.6322 32.0002 14.553 31.9996L24.6218 31.9937C25.0494 31.9935 25.4399 31.8315 25.7354 31.566C26.0423 31.8404 26.4329 31.9924 26.8481 31.9927L36.9175 31.9868C37.3637 31.9857 37.7828 31.8118 38.098 31.497C38.4133 31.1814 38.5867 30.7621 38.5864 30.3159L38.5805 20.2468C38.5803 19.8313 38.4278 19.4409 38.1525 19.1343C38.4179 18.8385 38.5795 18.4479 38.5792 18.0202L38.5733 7.95113ZM24.6212 30.8805L14.5524 30.8864C14.2453 30.8865 13.9956 30.6371 13.9954 30.33L13.9891 19.7046L23.501 19.699C23.8083 19.6988 24.0575 19.4485 24.0573 19.142C24.0572 18.8353 23.8077 18.5855 23.5004 18.5857L13.9888 18.5913L13.9825 7.96527C13.9829 7.65883 14.2321 7.40936 14.5389 7.40831L24.6071 7.4024C24.9138 7.40309 25.1633 7.65227 25.1641 7.95871L25.1706 19.1414C25.1706 19.1428 25.1709 19.144 25.1709 19.1454L25.1775 30.3194C25.1775 30.3212 25.1772 30.3223 25.1772 30.3238C25.1772 30.3246 25.1775 30.3252 25.1775 30.3258C25.1765 30.6317 24.9273 30.8803 24.6212 30.8805Z" fill="black"/>
<path d="M6.70601 11.0898C6.62442 10.8727 6.41675 10.729 6.18482 10.7292C5.95289 10.7293 5.7451 10.8732 5.66376 11.0904L4.41357 14.4304C4.3056 14.7184 4.45191 15.0392 4.73957 15.1469C5.02752 15.2543 5.34808 15.1086 5.45605 14.8209L5.52899 14.6255L6.84493 14.6247L6.91839 14.82C7.00202 15.0432 7.21432 15.1811 7.43959 15.181C7.50453 15.1809 7.57062 15.1693 7.63497 15.1452C7.9225 15.0372 8.06814 14.7162 7.96013 14.4283L6.70601 11.0898ZM5.94582 13.5119L6.18579 12.8705L6.4265 13.5116L5.94582 13.5119Z" fill="black"/>
<path d="M9.18111 10.7272C8.87379 10.7274 8.6249 10.9766 8.62508 11.2842L8.62704 14.6237C8.62722 14.931 8.87641 15.1799 9.18372 15.1798L9.62903 15.1795C9.93634 15.1793 10.1855 14.9301 10.1853 14.6228C10.1852 14.3532 9.99371 14.1289 9.73971 14.0775L9.73807 11.2835C9.73789 10.9762 9.48842 10.727 9.18111 10.7272Z" fill="black"/>
<path d="M18.7338 13.5045C18.8874 13.5044 19.0122 13.6293 19.0122 13.7827C19.0123 13.936 18.8877 14.0611 18.7341 14.0611L17.8991 14.0616C17.5918 14.0618 17.3429 14.311 17.3431 14.6186C17.3433 14.9259 17.5925 15.1748 17.8998 15.1746L18.7347 15.1741C19.5022 15.1737 20.126 14.5491 20.1255 13.782C20.1251 13.0149 19.5005 12.3911 18.7331 12.3915C18.5797 12.3916 18.4547 12.2667 18.4546 12.1134C18.4545 11.96 18.5794 11.835 18.7328 11.8349L19.1224 11.8346C19.4297 11.8345 19.6789 11.5853 19.6787 11.2777C19.6786 10.9701 19.4291 10.7212 19.1218 10.7214L18.7321 10.7216C17.965 10.722 17.3412 11.3466 17.3416 12.114C17.3421 12.8811 17.9666 13.505 18.7338 13.5045Z" fill="black"/>
<path d="M21.2553 15.1729C21.5626 15.1727 21.8115 14.9232 21.8113 14.6159L21.8103 12.9454C21.8102 12.6381 21.561 12.3889 21.2537 12.3891C20.9464 12.3893 20.6972 12.6387 20.6973 12.946L20.6983 14.6165C20.6985 14.9239 20.948 15.173 21.2553 15.1729Z" fill="black"/>
<path d="M21.8094 11.276C21.8095 11.5833 21.5607 11.8327 21.2533 11.8329C20.9457 11.8331 20.6966 11.5839 20.6964 11.2766C20.6962 10.9693 20.9451 10.7198 21.2527 10.7196C21.56 10.7195 21.8092 10.9686 21.8094 11.276Z" fill="black"/>
<path d="M31.3348 14.6104L31.3345 14.0537L31.8633 14.0534C32.7789 14.0529 33.5232 13.3033 33.5227 12.3828C33.5221 11.4621 32.7769 10.7133 31.8613 10.7139L30.7759 10.7145C30.4686 10.7147 30.2197 10.9639 30.2199 11.2715L30.2218 14.611C30.222 14.9183 30.4712 15.1672 30.7785 15.1671C31.0858 15.1669 31.335 14.9177 31.3348 14.6104ZM31.3332 11.8275L31.862 11.8272C32.1635 11.827 32.4092 12.0765 32.4094 12.3835C32.4096 12.6902 32.1642 12.94 31.8626 12.9402L31.3338 12.9405L31.3332 11.8275Z" fill="black"/>
<path d="M5.49305 27.429C6.08767 27.4287 6.64649 27.1967 7.06691 26.7761C7.48704 26.3552 7.71836 25.7961 7.71801 25.2014C7.71783 24.8941 7.46865 24.6449 7.16133 24.6451L6.19678 24.6457C5.88947 24.6459 5.64029 24.8951 5.64047 25.2027C5.64065 25.5103 5.89012 25.7592 6.19743 25.759L6.45662 25.7588C6.40854 25.8421 6.34915 25.9195 6.27933 25.9894C6.06897 26.1997 5.78956 26.3159 5.49239 26.316C4.87864 26.3164 4.37911 25.8172 4.37875 25.2034C4.37839 24.5896 4.87733 24.0901 5.49109 24.0898L5.89958 24.0895C6.20689 24.0893 6.45607 23.8399 6.45589 23.5326C6.45571 23.2249 6.20624 22.9761 5.89893 22.9762L5.49043 22.9765C4.26292 22.9772 3.26475 23.9765 3.26547 25.2041C3.26619 26.4316 4.26554 27.4297 5.49305 27.429Z" fill="black"/>
<path d="M10.755 27.4258C11.0623 27.4256 11.3115 27.1764 11.3113 26.8688L11.31 24.6425C11.3099 24.3352 11.0604 24.0863 10.7531 24.0865C10.5994 24.0866 10.4603 24.149 10.3595 24.2497C10.1414 24.1454 9.89752 24.087 9.63979 24.0872C8.7193 24.0877 7.97059 24.837 7.97113 25.7578C7.97167 26.6783 8.72126 27.427 9.64175 27.4264C9.89948 27.4263 10.1433 27.3676 10.3612 27.2628C10.4622 27.3636 10.6014 27.4259 10.755 27.4258ZM9.64109 26.3134C9.33436 26.3136 9.0846 26.0641 9.08441 25.7571C9.08423 25.4501 9.33371 25.2003 9.64044 25.2001C9.94746 25.2 10.1972 25.4494 10.1974 25.7565C10.1976 26.0632 9.94811 26.3132 9.64109 26.3134Z" fill="black"/>
<path d="M19.4052 26.7687C19.8256 26.3478 20.0566 25.7887 20.0563 25.1941C20.0561 24.8868 19.8072 24.6376 19.4996 24.6378L18.5353 24.6384C18.2277 24.6386 17.9788 24.8877 17.979 25.1953C17.9792 25.5029 18.2284 25.7518 18.536 25.7517L18.7949 25.7515C18.7468 25.8347 18.6874 25.9122 18.6176 25.9821C18.4075 26.1924 18.1281 26.3085 17.8306 26.3087C17.2169 26.3091 16.7174 25.8098 16.717 25.1961C16.7166 24.5823 17.2156 24.0828 17.8293 24.0824L18.2378 24.0822C18.5454 24.082 18.7943 23.8325 18.7941 23.5252C18.794 23.2176 18.5448 22.9687 18.2372 22.9689L17.8287 22.9692C16.6012 22.9699 15.603 23.9692 15.6037 25.1967C15.6044 26.4242 16.6038 27.4224 17.8313 27.4217C18.4262 27.4213 18.985 27.1894 19.4052 26.7687Z" fill="black"/>
<path d="M22.0422 24.0798C21.1214 24.0804 20.3727 24.8297 20.3732 25.7504C20.3738 26.6709 21.1234 27.4196 22.0441 27.4191L22.7417 27.4187C23.049 27.4185 23.2979 27.1693 23.2977 26.8617C23.2975 26.5544 23.0483 26.3055 22.741 26.3057L22.0435 26.3061C21.7365 26.3063 21.4867 26.0568 21.4865 25.7498C21.4863 25.4428 21.7358 25.193 22.0428 25.1928C22.0965 25.1928 22.1495 25.2006 22.2 25.2156C22.0224 25.4343 22.0353 25.7564 22.239 25.9598C22.4565 26.1771 22.8091 26.1769 23.0261 25.9594L23.4002 25.5849C23.5783 25.4065 23.6144 25.1304 23.4879 24.9122C23.1898 24.3981 22.6356 24.0795 22.0422 24.0798Z" fill="black"/>
<path d="M31.0578 23.3222C30.9762 23.1051 30.7685 22.9614 30.5366 22.9616C30.3046 22.9617 30.0968 23.1056 30.0155 23.3228L28.7653 26.6631C28.6573 26.9511 28.8037 27.2716 29.0913 27.3793C29.3793 27.487 29.6998 27.3413 29.8078 27.0533L29.881 26.8579L31.1967 26.8571L31.2701 27.0525C31.3541 27.2759 31.5661 27.4135 31.7913 27.4134C31.8563 27.4134 31.9224 27.402 31.9867 27.3776C32.2745 27.2696 32.4202 26.9489 32.3119 26.661L31.0578 23.3222ZM30.2976 25.7446L30.5375 25.1032L30.7782 25.7444L30.2976 25.7446Z" fill="black"/>
<path d="M32.9154 26.8562C32.9156 27.1638 33.1648 27.4126 33.4721 27.4125L33.9174 27.4122C34.5311 27.4118 35.0301 26.912 35.0297 26.2983C35.0295 26.0095 34.932 25.7388 34.7544 25.536C34.545 25.2969 34.2736 25.244 34.0944 25.2087C34.0744 25.205 34.0492 25.2001 34.0271 25.1951C34.0268 25.1922 34.0268 25.1891 34.0265 25.1859L34.0274 25.1859C34.3347 25.1857 34.5839 24.9362 34.5837 24.6289C34.5835 24.3213 34.3341 24.0724 34.0267 24.0726C33.413 24.0729 32.9141 24.5728 32.9144 25.1865C32.9146 25.5452 33.0635 25.8695 33.3231 26.0763C33.5117 26.2261 33.717 26.2692 33.8698 26.299L33.4714 26.2992C33.1641 26.2994 32.9152 26.5486 32.9154 26.8562Z" fill="black"/>
<path d="M4.74557 8.57721L3.31976 8.57804C3.01216 8.57822 2.76327 8.82741 2.76345 9.13501C2.76363 9.44232 3.01281 9.6915 3.32042 9.69132L4.74623 9.69049C5.05354 9.69031 5.30272 9.44083 5.30254 9.13352C5.30236 8.82592 5.05289 8.57703 4.74557 8.57721Z" fill="black"/>
<path d="M17.6234 9.1262C17.6232 8.81859 17.3741 8.5697 17.0665 8.56988L15.6409 8.57072C15.3333 8.5709 15.0844 8.82008 15.0846 9.12769C15.0848 9.435 15.334 9.68418 15.6416 9.684L17.0671 9.68316C17.3747 9.68298 17.6236 9.43351 17.6234 9.1262Z" fill="black"/>
<path d="M29.3877 8.5628L27.9619 8.56364C27.6545 8.56382 27.4054 8.813 27.4055 9.12061C27.4057 9.42792 27.6552 9.6771 27.9625 9.67692L29.3883 9.67608C29.6956 9.6759 29.9448 9.42643 29.9446 9.11912C29.9445 8.81151 29.695 8.56262 29.3877 8.5628Z" fill="black"/>
<path d="M21.8048 16.3765L17.3517 16.3791C17.0441 16.3792 16.7952 16.6287 16.7954 16.936C16.7956 17.2436 17.0447 17.4925 17.3523 17.4923L21.8055 17.4897C22.1131 17.4896 22.362 17.2404 22.3618 16.9328C22.3616 16.6255 22.1124 16.3763 21.8048 16.3765Z" fill="black"/>
<path d="M29.091 16.9287C29.0912 17.2363 29.3404 17.4852 29.648 17.485L34.1011 17.4824C34.4084 17.4822 34.6576 17.233 34.6574 16.9254C34.6573 16.6181 34.4078 16.3689 34.1005 16.3691L29.6473 16.3717C29.3397 16.3719 29.0908 16.6214 29.091 16.9287Z" fill="black"/>
<path d="M4.49972 16.9431C4.4999 17.2507 4.74937 17.4996 5.05668 17.4994L9.50981 17.4968C9.81741 17.4966 10.0663 17.2474 10.0661 16.9398C10.0659 16.6325 9.81676 16.3834 9.50915 16.3835L5.05603 16.3861C4.74872 16.3863 4.49954 16.6358 4.49972 16.9431Z" fill="black"/>
<path d="M5.30974 21.3801C5.30956 21.0728 5.06009 20.8236 4.75278 20.8238L3.32697 20.8246C3.01936 20.8248 2.77047 21.0743 2.77065 21.3816C2.77083 21.6892 3.02002 21.9381 3.32762 21.9379L4.75343 21.9371C5.06074 21.9369 5.30992 21.6877 5.30974 21.3801Z" fill="black"/>
<path d="M17.0743 21.93C17.3819 21.9298 17.6308 21.6806 17.6306 21.373C17.6304 21.0657 17.3813 20.8165 17.0737 20.8167L15.6481 20.8175C15.3405 20.8177 15.0916 21.0672 15.0918 21.3745C15.092 21.6821 15.3412 21.931 15.6488 21.9308L17.0743 21.93Z" fill="black"/>
<path d="M29.3949 20.8094L27.9691 20.8102C27.6617 20.8104 27.4126 21.0599 27.4127 21.3672C27.4129 21.6748 27.6624 21.9237 27.9697 21.9235L29.3955 21.9227C29.7028 21.9225 29.952 21.6733 29.9518 21.3657C29.9517 21.0584 29.7022 20.8092 29.3949 20.8094Z" fill="black"/>
<path d="M21.812 28.6233L17.3589 28.6259C17.0513 28.6261 16.8024 28.8753 16.8026 29.1829C16.8028 29.4905 17.0519 29.7394 17.3595 29.7392L21.8127 29.7366C22.1203 29.7364 22.3692 29.4872 22.369 29.1796C22.3688 28.872 22.1196 28.6231 21.812 28.6233Z" fill="black"/>
<path d="M29.0982 29.1758C29.0984 29.4834 29.3476 29.7323 29.6552 29.7321L34.1083 29.7295C34.4156 29.7293 34.6648 29.4801 34.6646 29.1725C34.6645 28.8649 34.415 28.616 34.1077 28.6162L29.6545 28.6188C29.3469 28.619 29.098 28.8685 29.0982 29.1758Z" fill="black"/>
<path d="M5.06389 29.7465L9.51701 29.7439C9.82461 29.7437 10.0735 29.4945 10.0733 29.1869C10.0731 28.8793 9.82396 28.6304 9.51636 28.6306L5.06323 28.6332C4.75592 28.6334 4.50674 28.8826 4.50692 29.1902C4.5071 29.4978 4.75657 29.7467 5.06389 29.7465Z" fill="black"/>
</g>
<defs>
<clipPath id="clip0">
<rect width="38" height="38" fill="white" transform="translate(0.568726 0.143066) rotate(-0.0336302)"/>
</clipPath>
</defs>
</svg>
