<svg width="88" height="73" viewBox="0 0 88 73" fill="none" xmlns="http://www.w3.org/2000/svg">
<path d="M13.6202 2.74615e-07H74.3825C76.1709 -0.000359152 77.9418 0.352108 79.5941 1.03727C81.2464 1.72243 82.7478 2.72685 84.0123 3.99317C85.2769 5.25949 86.28 6.76288 86.9642 8.41747C87.6484 10.0721 88.0004 11.8454 88 13.6363V42.0142C88.0004 43.8051 87.6484 45.5786 86.9642 47.2334C86.28 48.8881 85.277 50.3917 84.0125 51.6582C82.748 52.9248 81.2467 53.9295 79.5943 54.6149C77.942 55.3004 76.171 55.6532 74.3825 55.6532H73.9317L78.8033 72.0008C78.8509 72.158 78.8474 72.3262 78.7933 72.4813C78.7392 72.6363 78.6372 72.7701 78.5022 72.8633C78.3671 72.9565 78.206 73.0042 78.0421 72.9997C77.8781 72.9952 77.7199 72.9386 77.5902 72.8381L55.0765 55.6395H13.6202C10.0103 55.6395 6.548 54.2044 3.9941 51.6496C1.44021 49.0947 0.0036208 45.6291 0 42.0142V13.6363C-3.60001e-08 11.8453 0.352317 10.0719 1.03683 8.41726C1.72134 6.76266 2.72465 5.25928 3.98944 3.993C5.25423 2.72672 6.75573 1.72234 8.40819 1.03721C10.0607 0.352087 11.8317 -0.00035907 13.6202 2.74615e-07Z" fill="#3A57CE"/>
<path d="M18.3118 24H69.6905C71.0987 24 72.4492 23.5787 73.4449 22.8287C74.4406 22.0787 75 21.0615 75 20.0009C75 18.9401 74.4407 17.9227 73.445 17.1725C72.4494 16.4222 71.0989 16.0005 69.6905 16H18.3118C16.903 16 15.5519 16.4215 14.5558 17.1718C13.5596 17.9221 13 18.9398 13 20.0009C13.0006 21.0617 13.5605 22.0789 14.5566 22.8288C15.5527 23.5787 16.9034 24 18.3118 24Z" fill="white"/>
<path d="M40.2556 40H71.7458C72.6089 40 73.4366 39.5787 74.0469 38.8287C74.6572 38.0787 75 37.0615 75 36.0009C75 34.9401 74.6572 33.9227 74.047 33.1725C73.4367 32.4222 72.609 32.0005 71.7458 32H40.2556C39.3922 32 38.5641 32.4215 37.9535 33.1718C37.343 33.9221 37 34.9398 37 36.0009C37.0004 37.0617 37.3436 38.0789 37.9541 38.8288C38.5646 39.5787 39.3924 40 40.2556 40Z" fill="white"/>
</svg>
