<svg width="21" height="21" viewBox="0 0 21 21" fill="none" xmlns="http://www.w3.org/2000/svg">
<path d="M21 10.4963C21.0007 12.5731 20.3855 14.6036 19.2322 16.3308C18.0789 18.058 16.4393 19.4044 14.5208 20.1997C12.6022 20.995 10.4909 21.2034 8.45384 20.7987C6.41679 20.394 4.54553 19.3942 3.0767 17.9259C1.60788 16.4576 0.607482 14.5867 0.202035 12.5498C-0.203413 10.5129 0.00429637 8.40153 0.798906 6.48269C1.59352 4.56385 2.93933 2.92375 4.66612 1.76983C6.39292 0.615908 8.42314 1.31325e-07 10.5 0C13.2841 -1.76047e-07 15.9543 1.10573 17.9233 3.07406C19.8923 5.04238 20.999 7.71214 21 10.4963Z" fill="#FC9C29"/>
</svg>
