<svg width="15" height="15" viewBox="0 0 15 15" fill="none" xmlns="http://www.w3.org/2000/svg">
<path d="M7.50001 15C6.01696 15 4.56719 14.5603 3.33398 13.7365C2.10077 12.9127 1.13947 11.7418 0.571595 10.3718C0.00372367 9.00179 -0.145214 7.49416 0.143585 6.0395C0.432383 4.58485 1.14597 3.24846 2.19413 2.19928C3.2423 1.1501 4.57798 0.435216 6.03236 0.145004C7.48674 -0.145208 8.9945 0.00227664 10.3651 0.568816C11.7357 1.13535 12.9075 2.09551 13.7325 3.32792C14.5575 4.56033 14.9986 6.00966 15 7.49271C15.0005 8.4781 14.8069 9.45394 14.4302 10.3645C14.0536 11.2751 13.5013 12.1025 12.8048 12.7997C12.1084 13.4968 11.2814 14.0499 10.3712 14.4274C9.46104 14.805 8.48541 14.9995 7.50001 15ZM7.50001 2.07098C6.42507 2.07098 5.37427 2.38988 4.48064 2.98731C3.587 3.58475 2.89069 4.43386 2.47983 5.42719C2.06897 6.42052 1.96201 7.51341 2.17252 8.56754C2.38303 9.62167 2.90154 10.5897 3.6624 11.349C4.42327 12.1083 5.39231 12.6249 6.44687 12.8333C7.50142 13.0416 8.59409 12.9325 9.58659 12.5196C10.5791 12.1068 11.4268 11.4087 12.0224 10.5139C12.6181 9.61908 12.9348 8.56765 12.9327 7.49271C12.9279 6.05437 12.3536 4.67647 11.3355 3.66043C10.3174 2.64438 8.93836 2.0729 7.50001 2.07098Z" fill="#FC9C29"/>
</svg>
